<?xml version="1.0" encoding="utf-8" standalone="no"?>
<!DOCTYPE svg PUBLIC "-//W3C//DTD SVG 1.1//EN"
  "http://www.w3.org/Graphics/SVG/1.1/DTD/svg11.dtd">
<svg xmlns:xlink="http://www.w3.org/1999/xlink" width="1080pt" height="720pt" viewBox="0 0 1080 720" xmlns="http://www.w3.org/2000/svg" version="1.1">
 <metadata>
  <rdf:RDF xmlns:dc="http://purl.org/dc/elements/1.1/" xmlns:cc="http://creativecommons.org/ns#" xmlns:rdf="http://www.w3.org/1999/02/22-rdf-syntax-ns#">
   <cc:Work>
    <dc:type rdf:resource="http://purl.org/dc/dcmitype/StillImage"/>
    <dc:date>2025-07-21T10:57:29.094012</dc:date>
    <dc:format>image/svg+xml</dc:format>
    <dc:creator>
     <cc:Agent>
      <dc:title>Matplotlib v3.5.1, https://matplotlib.org/</dc:title>
     </cc:Agent>
    </dc:creator>
   </cc:Work>
  </rdf:RDF>
 </metadata>
 <defs>
  <style type="text/css">*{stroke-linejoin: round; stroke-linecap: butt}</style>
 </defs>
 <g id="figure_1">
  <g id="patch_1">
   <path d="M 0 720 
L 1080 720 
L 1080 0 
L 0 0 
z
" style="fill: #ffffff"/>
  </g>
  <g id="axes_1">
   <g id="patch_2">
    <path d="M 48.44 120.216 
L 1069.2 120.216 
L 1069.2 26.88 
L 48.44 26.88 
z
" style="fill: #ffffff"/>
   </g>
   <g id="matplotlib.axis_1">
    <g id="xtick_1">
     <g id="line2d_1">
      <path d="M 48.44 120.216 
L 48.44 26.88 
" clip-path="url(#p0d59ea2a9f)" style="fill: none; stroke: #b0b0b0; stroke-width: 0.8; stroke-linecap: square"/>
     </g>
     <g id="line2d_2">
      <defs>
       <path id="m135e3afb32" d="M 0 0 
L 0 3.5 
" style="stroke: #000000; stroke-width: 0.8"/>
      </defs>
      <g>
       <use xlink:href="#m135e3afb32" x="48.44" y="120.216" style="stroke: #000000; stroke-width: 0.8"/>
      </g>
     </g>
     <g id="text_1">
      <!-- 0 -->
      <g transform="translate(45.356406 135.20975)scale(0.1 -0.1)">
       <defs>
        <path id="MicrosoftYaHei-Bold-30" d="M 244 2341 
Q 244 3597 706 4259 
Q 1169 4922 2044 4922 
Q 3713 4922 3713 2453 
Q 3713 1238 3259 577 
Q 2806 -84 1950 -84 
Q 244 -84 244 2341 
z
M 1266 2366 
Q 1266 691 1981 691 
Q 2684 691 2684 2416 
Q 2684 4147 2000 4147 
Q 1266 4147 1266 2366 
z
" transform="scale(0.015625)"/>
       </defs>
       <use xlink:href="#MicrosoftYaHei-Bold-30"/>
      </g>
     </g>
    </g>
    <g id="xtick_2">
     <g id="line2d_3">
      <path d="M 261.098333 120.216 
L 261.098333 26.88 
" clip-path="url(#p0d59ea2a9f)" style="fill: none; stroke: #b0b0b0; stroke-width: 0.8; stroke-linecap: square"/>
     </g>
     <g id="line2d_4">
      <g>
       <use xlink:href="#m135e3afb32" x="261.098333" y="120.216" style="stroke: #000000; stroke-width: 0.8"/>
      </g>
     </g>
     <g id="text_2">
      <!-- 5 -->
      <g transform="translate(258.01474 135.20975)scale(0.1 -0.1)">
       <defs>
        <path id="MicrosoftYaHei-Bold-35" d="M 541 125 
L 541 997 
Q 1044 691 1613 691 
Q 2041 691 2283 902 
Q 2525 1113 2525 1472 
Q 2525 2225 1494 2225 
Q 1113 2225 616 2169 
L 797 4841 
L 3359 4841 
L 3359 4009 
L 1613 4009 
L 1544 2991 
Q 1803 3013 2022 3013 
Q 2731 3013 3142 2625 
Q 3553 2238 3553 1575 
Q 3553 844 3056 380 
Q 2559 -84 1706 -84 
Q 1016 -84 541 125 
z
" transform="scale(0.015625)"/>
       </defs>
       <use xlink:href="#MicrosoftYaHei-Bold-35"/>
      </g>
     </g>
    </g>
    <g id="xtick_3">
     <g id="line2d_5">
      <path d="M 473.756667 120.216 
L 473.756667 26.88 
" clip-path="url(#p0d59ea2a9f)" style="fill: none; stroke: #b0b0b0; stroke-width: 0.8; stroke-linecap: square"/>
     </g>
     <g id="line2d_6">
      <g>
       <use xlink:href="#m135e3afb32" x="473.756667" y="120.216" style="stroke: #000000; stroke-width: 0.8"/>
      </g>
     </g>
     <g id="text_3">
      <!-- 10 -->
      <g transform="translate(467.589479 135.20975)scale(0.1 -0.1)">
       <defs>
        <path id="MicrosoftYaHei-Bold-31" d="M 2716 4947 
L 2716 0 
L 1700 0 
L 1700 3809 
Q 1513 3647 1188 3517 
Q 863 3388 591 3356 
L 591 4222 
Q 1447 4472 2072 4947 
L 2716 4947 
z
" transform="scale(0.015625)"/>
       </defs>
       <use xlink:href="#MicrosoftYaHei-Bold-31"/>
       <use xlink:href="#MicrosoftYaHei-Bold-30" x="61.669922"/>
      </g>
     </g>
    </g>
    <g id="xtick_4">
     <g id="line2d_7">
      <path d="M 686.415 120.216 
L 686.415 26.88 
" clip-path="url(#p0d59ea2a9f)" style="fill: none; stroke: #b0b0b0; stroke-width: 0.8; stroke-linecap: square"/>
     </g>
     <g id="line2d_8">
      <g>
       <use xlink:href="#m135e3afb32" x="686.415" y="120.216" style="stroke: #000000; stroke-width: 0.8"/>
      </g>
     </g>
     <g id="text_4">
      <!-- 15 -->
      <g transform="translate(680.247813 135.20975)scale(0.1 -0.1)">
       <use xlink:href="#MicrosoftYaHei-Bold-31"/>
       <use xlink:href="#MicrosoftYaHei-Bold-35" x="61.669922"/>
      </g>
     </g>
    </g>
    <g id="xtick_5">
     <g id="line2d_9">
      <path d="M 899.073333 120.216 
L 899.073333 26.88 
" clip-path="url(#p0d59ea2a9f)" style="fill: none; stroke: #b0b0b0; stroke-width: 0.8; stroke-linecap: square"/>
     </g>
     <g id="line2d_10">
      <g>
       <use xlink:href="#m135e3afb32" x="899.073333" y="120.216" style="stroke: #000000; stroke-width: 0.8"/>
      </g>
     </g>
     <g id="text_5">
      <!-- 20 -->
      <g transform="translate(892.906146 135.20975)scale(0.1 -0.1)">
       <defs>
        <path id="MicrosoftYaHei-Bold-32" d="M 1500 841 
L 3553 841 
L 3553 0 
L 334 0 
L 334 359 
Q 334 738 473 1050 
Q 613 1363 856 1633 
Q 1100 1903 1613 2266 
Q 2081 2616 2268 2886 
Q 2456 3156 2456 3459 
Q 2456 4113 1744 4113 
Q 1119 4113 550 3613 
L 550 4513 
Q 1184 4922 1975 4922 
Q 2700 4922 3122 4551 
Q 3544 4181 3544 3531 
Q 3544 3169 3422 2876 
Q 3300 2584 3069 2328 
Q 2838 2072 2328 1713 
Q 1838 1363 1669 1172 
Q 1500 981 1500 841 
z
" transform="scale(0.015625)"/>
       </defs>
       <use xlink:href="#MicrosoftYaHei-Bold-32"/>
       <use xlink:href="#MicrosoftYaHei-Bold-30" x="61.669922"/>
      </g>
     </g>
    </g>
   </g>
   <g id="matplotlib.axis_2">
    <g id="ytick_1">
     <g id="line2d_11">
      <path d="M 48.44 115.973455 
L 1069.2 115.973455 
" clip-path="url(#p0d59ea2a9f)" style="fill: none; stroke: #b0b0b0; stroke-width: 0.8; stroke-linecap: square"/>
     </g>
     <g id="line2d_12">
      <defs>
       <path id="m42e52aa2c2" d="M 0 0 
L -3.5 0 
" style="stroke: #000000; stroke-width: 0.8"/>
      </defs>
      <g>
       <use xlink:href="#m42e52aa2c2" x="48.44" y="115.973455" style="stroke: #000000; stroke-width: 0.8"/>
      </g>
     </g>
     <g id="text_6">
      <!-- 0 -->
      <g transform="translate(35.272813 119.97033)scale(0.1 -0.1)">
       <use xlink:href="#MicrosoftYaHei-Bold-30"/>
      </g>
     </g>
    </g>
    <g id="ytick_2">
     <g id="line2d_13">
      <path d="M 48.44 73.548 
L 1069.2 73.548 
" clip-path="url(#p0d59ea2a9f)" style="fill: none; stroke: #b0b0b0; stroke-width: 0.8; stroke-linecap: square"/>
     </g>
     <g id="line2d_14">
      <g>
       <use xlink:href="#m42e52aa2c2" x="48.44" y="73.548" style="stroke: #000000; stroke-width: 0.8"/>
      </g>
     </g>
     <g id="text_7">
      <!-- 20 -->
      <g transform="translate(29.105625 77.544875)scale(0.1 -0.1)">
       <use xlink:href="#MicrosoftYaHei-Bold-32"/>
       <use xlink:href="#MicrosoftYaHei-Bold-30" x="61.669922"/>
      </g>
     </g>
    </g>
    <g id="ytick_3">
     <g id="line2d_15">
      <path d="M 48.44 31.122545 
L 1069.2 31.122545 
" clip-path="url(#p0d59ea2a9f)" style="fill: none; stroke: #b0b0b0; stroke-width: 0.8; stroke-linecap: square"/>
     </g>
     <g id="line2d_16">
      <g>
       <use xlink:href="#m42e52aa2c2" x="48.44" y="31.122545" style="stroke: #000000; stroke-width: 0.8"/>
      </g>
     </g>
     <g id="text_8">
      <!-- 40 -->
      <g transform="translate(29.105625 35.11942)scale(0.1 -0.1)">
       <defs>
        <path id="MicrosoftYaHei-Bold-34" d="M 3184 4841 
L 3184 1766 
L 3869 1766 
L 3869 1031 
L 3184 1031 
L 3184 0 
L 2266 0 
L 2266 1031 
L 103 1031 
L 103 1772 
Q 775 2522 1362 3359 
Q 1950 4197 2250 4841 
L 3184 4841 
z
M 997 1766 
L 2266 1766 
L 2266 3541 
Q 2116 3259 1836 2859 
Q 1556 2459 997 1766 
z
" transform="scale(0.015625)"/>
       </defs>
       <use xlink:href="#MicrosoftYaHei-Bold-34"/>
       <use xlink:href="#MicrosoftYaHei-Bold-30" x="61.669922"/>
      </g>
     </g>
    </g>
    <g id="text_9">
     <!-- 占用数量 -->
     <g transform="translate(22.619688 93.548)rotate(-90)scale(0.1 -0.1)">
      <defs>
       <path id="MicrosoftYaHei-5360" d="M 863 2434 
L 2775 2434 
L 2775 5259 
L 3288 5259 
L 3288 4209 
L 6150 4209 
L 6150 3747 
L 3288 3747 
L 3288 2434 
L 5525 2434 
L 5525 -841 
L 5025 -841 
L 5025 -453 
L 1363 -453 
L 1363 -853 
L 863 -853 
L 863 2434 
z
M 5025 1984 
L 1363 1984 
L 1363 -9 
L 5025 -9 
L 5025 1984 
z
" transform="scale(0.015625)"/>
       <path id="MicrosoftYaHei-7528" d="M 3088 -734 
L 3088 1253 
L 1269 1253 
Q 1163 -47 513 -903 
Q 350 -697 144 -472 
Q 550 103 694 803 
Q 831 1478 831 2716 
L 831 4947 
L 5925 4947 
L 5925 -22 
Q 5925 -766 5219 -766 
Q 4788 -766 4250 -747 
Q 4219 -541 4156 -228 
Q 4700 -266 5038 -266 
Q 5425 -266 5425 103 
L 5425 1253 
L 3588 1253 
L 3588 -734 
L 3088 -734 
z
M 3588 1703 
L 5425 1703 
L 5425 2872 
L 3588 2872 
L 3588 1703 
z
M 5425 4484 
L 3588 4484 
L 3588 3322 
L 5425 3322 
L 5425 4484 
z
M 1303 1703 
L 3088 1703 
L 3088 2872 
L 1331 2872 
Q 1350 2266 1303 1703 
z
M 1331 4484 
L 1331 3322 
L 3088 3322 
L 3088 4484 
L 1331 4484 
z
" transform="scale(0.015625)"/>
       <path id="MicrosoftYaHei-6570" d="M 4175 5303 
L 4675 5228 
Q 4544 4622 4369 4097 
L 6281 4097 
L 6281 3672 
L 5888 3672 
Q 5731 1834 5088 753 
Q 5594 66 6375 -372 
Q 6175 -647 6038 -866 
Q 5275 -372 4769 309 
Q 4194 -403 3400 -928 
Q 3263 -747 3044 -534 
Q 3919 41 4463 772 
Q 3956 1647 3794 2791 
Q 3663 2559 3519 2359 
Q 3394 2541 3206 2759 
Q 3931 3803 4175 5303 
z
M 150 1697 
L 1100 1697 
Q 1238 1934 1369 2184 
L 1819 2041 
Q 1719 1866 1619 1697 
L 3150 1697 
L 3150 1291 
Q 2913 678 2431 216 
Q 2775 53 3131 -109 
L 2856 -541 
Q 2469 -322 2050 -103 
Q 1344 -609 269 -903 
Q 169 -703 56 -466 
Q 969 -259 1600 128 
Q 1063 403 475 691 
Q 675 978 863 1284 
L 150 1284 
L 150 1697 
z
M 219 3847 
L 1656 3847 
L 1656 5247 
L 2119 5247 
L 2119 3847 
L 3319 3847 
L 3319 3434 
L 2119 3434 
L 2119 3053 
L 2306 3266 
Q 2888 2841 3281 2516 
L 2981 2166 
Q 2638 2491 2119 2897 
L 2119 2184 
L 1656 2184 
L 1656 3059 
Q 1088 2466 331 2016 
Q 213 2197 63 2397 
Q 850 2822 1506 3434 
L 219 3434 
L 219 3847 
z
M 5388 3672 
L 4219 3672 
Q 4188 3591 4150 3516 
Q 4263 2191 4775 1247 
Q 5275 2159 5388 3672 
z
M 1088 834 
Q 1531 634 2000 416 
Q 2431 784 2675 1284 
L 1375 1284 
Q 1231 1053 1088 834 
z
M 3038 5091 
L 3425 4834 
Q 3081 4384 2738 4003 
Q 2594 4128 2400 4266 
Q 2725 4647 3038 5091 
z
M 381 4816 
L 738 5059 
Q 1019 4716 1319 4322 
L 931 4047 
Q 656 4453 381 4816 
z
" transform="scale(0.015625)"/>
       <path id="MicrosoftYaHei-91cf" d="M 113 -278 
L 2981 -278 
L 2981 78 
L 475 78 
L 475 403 
L 2981 403 
L 2981 759 
L 1494 759 
L 1494 597 
L 1069 597 
L 1069 2516 
L 5350 2516 
L 5350 597 
L 4925 597 
L 4925 759 
L 3419 759 
L 3419 403 
L 5931 403 
L 5931 78 
L 3419 78 
L 3419 -278 
L 6288 -278 
L 6288 -616 
L 113 -616 
L 113 -278 
z
M 1119 5072 
L 5306 5072 
L 5306 3284 
L 4881 3284 
L 4881 3453 
L 1544 3453 
L 1544 3284 
L 1119 3284 
L 1119 5072 
z
M 163 3153 
L 6263 3153 
L 6263 2816 
L 163 2816 
L 163 3153 
z
M 1544 3778 
L 4881 3778 
L 4881 4116 
L 1544 4116 
L 1544 3778 
z
M 4881 4747 
L 1544 4747 
L 1544 4416 
L 4881 4416 
L 4881 4747 
z
M 3419 1084 
L 4925 1084 
L 4925 1491 
L 3419 1491 
L 3419 1084 
z
M 1494 1084 
L 2981 1084 
L 2981 1491 
L 1494 1491 
L 1494 1084 
z
M 4925 2191 
L 3419 2191 
L 3419 1791 
L 4925 1791 
L 4925 2191 
z
M 1494 1791 
L 2981 1791 
L 2981 2191 
L 1494 2191 
L 1494 1791 
z
" transform="scale(0.015625)"/>
      </defs>
      <use xlink:href="#MicrosoftYaHei-5360"/>
      <use xlink:href="#MicrosoftYaHei-7528" x="100"/>
      <use xlink:href="#MicrosoftYaHei-6570" x="200"/>
      <use xlink:href="#MicrosoftYaHei-91cf" x="300"/>
     </g>
    </g>
   </g>
   <g id="line2d_17">
    <path d="M 48.44 115.973455 
L 51.984306 113.852182 
L 55.528611 109.609636 
L 59.072917 107.488364 
L 66.161528 99.003273 
L 69.705833 96.882 
L 73.250139 92.639455 
L 76.794444 90.518182 
L 83.883056 82.033091 
L 87.427361 79.911818 
L 90.971667 75.669273 
L 94.515972 73.548 
L 101.604583 65.062909 
L 105.148889 62.941636 
L 108.693194 58.699091 
L 112.2375 56.577818 
L 119.326111 48.092727 
L 122.870417 45.971455 
L 126.414722 41.728909 
L 129.959028 39.607636 
L 133.503333 35.365091 
L 137.047639 33.243818 
L 140.591944 33.243818 
L 144.13625 31.122545 
L 154.769167 31.122545 
L 158.313472 33.243818 
L 161.857778 31.122545 
L 168.946389 31.122545 
L 172.490694 33.243818 
L 176.035 31.122545 
L 257.554028 31.122545 
L 261.098333 33.243818 
L 264.642639 31.122545 
L 268.186944 33.243818 
L 271.73125 31.122545 
L 275.275556 33.243818 
L 278.819861 31.122545 
L 282.364167 31.122545 
L 285.908472 33.243818 
L 289.452778 31.122545 
L 292.997083 31.122545 
L 296.541389 33.243818 
L 300.085694 31.122545 
L 346.161667 31.122545 
L 349.705972 33.243818 
L 353.250278 31.122545 
L 356.794583 33.243818 
L 360.338889 31.122545 
L 388.693333 31.122545 
L 392.237639 33.243818 
L 395.781944 33.243818 
L 399.32625 31.122545 
L 406.414861 31.122545 
L 409.959167 33.243818 
L 413.503472 31.122545 
L 434.769306 31.122545 
L 438.313611 33.243818 
L 441.857917 31.122545 
L 732.490972 31.122545 
L 736.035278 33.243818 
L 739.579583 31.122545 
L 799.832778 31.122545 
L 803.377083 33.243818 
L 806.921389 31.122545 
L 821.098611 31.122545 
L 824.642917 33.243818 
L 828.187222 31.122545 
L 835.275833 31.122545 
L 838.820139 33.243818 
L 842.364444 31.122545 
L 891.984722 31.122545 
L 895.529028 33.243818 
L 899.073333 31.122545 
L 909.70625 31.122545 
L 913.250556 33.243818 
L 916.794861 33.243818 
L 920.339167 31.122545 
L 923.883472 31.122545 
L 927.427778 33.243818 
L 930.972083 33.243818 
L 934.516389 31.122545 
L 966.415139 31.122545 
L 969.959444 33.243818 
L 977.048056 33.243818 
L 980.592361 31.122545 
L 1001.858194 31.122545 
L 1005.4025 33.243818 
L 1012.491111 33.243818 
L 1016.035417 31.122545 
L 1033.756944 31.122545 
L 1037.30125 33.243818 
L 1040.845556 31.122545 
L 1062.111389 31.122545 
L 1065.655694 33.243818 
L 1065.655694 33.243818 
" clip-path="url(#p0d59ea2a9f)" style="fill: none; stroke: #008000; stroke-width: 1.5; stroke-linecap: square"/>
   </g>
   <g id="patch_3">
    <path d="M 48.44 120.216 
L 48.44 26.88 
" style="fill: none; stroke: #000000; stroke-width: 0.8; stroke-linejoin: miter; stroke-linecap: square"/>
   </g>
   <g id="patch_4">
    <path d="M 1069.2 120.216 
L 1069.2 26.88 
" style="fill: none; stroke: #000000; stroke-width: 0.8; stroke-linejoin: miter; stroke-linecap: square"/>
   </g>
   <g id="patch_5">
    <path d="M 48.44 120.216 
L 1069.2 120.216 
" style="fill: none; stroke: #000000; stroke-width: 0.8; stroke-linejoin: miter; stroke-linecap: square"/>
   </g>
   <g id="patch_6">
    <path d="M 48.44 26.88 
L 1069.2 26.88 
" style="fill: none; stroke: #000000; stroke-width: 0.8; stroke-linejoin: miter; stroke-linecap: square"/>
   </g>
   <g id="text_10">
    <!-- 停机位占用情况 -->
    <g transform="translate(516.82 20.88)scale(0.12 -0.12)">
     <defs>
      <path id="MicrosoftYaHei-505c" d="M 2344 3859 
L 5488 3859 
L 5488 2466 
L 5050 2466 
L 5050 2634 
L 2781 2634 
L 2781 2466 
L 2344 2466 
L 2344 3859 
z
M 75 2284 
Q 956 3666 1350 5309 
L 1813 5197 
Q 1581 4413 1313 3738 
L 1313 -809 
L 888 -809 
L 888 2797 
Q 600 2231 275 1766 
Q 181 2041 75 2284 
z
M 2288 1303 
L 5581 1303 
L 5581 903 
L 4356 903 
L 4356 -3 
Q 4356 -728 3681 -734 
Q 3381 -741 2894 -728 
Q 2856 -503 2794 -241 
Q 3200 -284 3544 -284 
Q 3906 -284 3906 128 
L 3906 903 
L 2288 903 
L 2288 1303 
z
M 1663 2228 
L 6219 2228 
L 6219 1247 
L 5781 1247 
L 5781 1828 
L 2100 1828 
L 2100 1247 
L 1663 1247 
L 1663 2228 
z
M 1825 4628 
L 3725 4628 
Q 3591 4913 3431 5184 
L 3856 5372 
Q 4066 5006 4234 4628 
L 6150 4628 
L 6150 4228 
L 1825 4228 
L 1825 4628 
z
M 5050 3484 
L 2781 3484 
L 2781 3009 
L 5050 3009 
L 5050 3484 
z
" transform="scale(0.015625)"/>
      <path id="MicrosoftYaHei-673a" d="M 3375 4434 
L 3375 2366 
Q 3375 128 2256 -878 
Q 2081 -666 1888 -453 
Q 2875 416 2875 2253 
L 2875 4909 
L 5200 4909 
L 5200 209 
Q 5200 -103 5419 -103 
L 5563 -103 
Q 5763 -103 5819 247 
Q 5881 728 5906 1284 
Q 6125 1178 6381 1084 
Q 6325 466 6269 72 
Q 6169 -591 5631 -591 
L 5300 -591 
Q 4700 -591 4700 122 
L 4700 4434 
L 3375 4434 
z
M 81 1403 
Q 781 2447 1078 3653 
L 144 3653 
L 144 4078 
L 1119 4078 
L 1119 5309 
L 1569 5309 
L 1569 4078 
L 2444 4078 
L 2444 3653 
L 1569 3653 
L 1569 2616 
L 1819 2866 
Q 2300 2428 2575 2153 
L 2238 1809 
Q 1853 2234 1569 2516 
L 1569 -784 
L 1119 -784 
L 1119 2566 
Q 784 1506 288 853 
Q 188 1134 81 1403 
z
" transform="scale(0.015625)"/>
      <path id="MicrosoftYaHei-4f4d" d="M 1788 -59 
L 4228 -59 
Q 4678 1144 5269 3372 
L 5831 3203 
Q 5453 2044 4756 -59 
L 6319 -59 
L 6319 -522 
L 1788 -522 
L 1788 -59 
z
M 81 2291 
Q 975 3641 1431 5322 
L 1963 5191 
Q 1703 4397 1406 3709 
L 1406 -853 
L 938 -853 
L 938 2731 
Q 644 2181 319 1716 
Q 231 1953 81 2291 
z
M 1919 4191 
L 4122 4191 
Q 3844 4659 3506 5059 
L 3931 5353 
Q 4206 5034 4613 4497 
L 4150 4191 
L 6206 4191 
L 6206 3728 
L 1919 3728 
L 1919 4191 
z
M 2769 3309 
Q 3181 2184 3669 584 
L 3150 434 
Q 2725 1966 2294 3147 
L 2769 3309 
z
" transform="scale(0.015625)"/>
      <path id="MicrosoftYaHei-60c5" d="M 2806 -797 
L 2331 -797 
L 2331 2372 
L 5844 2372 
L 5844 -41 
Q 5844 -734 5213 -747 
Q 4800 -753 4150 -747 
Q 4119 -547 4056 -266 
Q 4650 -303 5025 -303 
Q 5369 -303 5369 -3 
L 5369 334 
L 2806 334 
L 2806 -797 
z
M 1925 3147 
L 3838 3147 
L 3838 3578 
L 2263 3578 
L 2263 3972 
L 3838 3972 
L 3838 4391 
L 2088 4391 
L 2088 4784 
L 3838 4784 
L 3838 5347 
L 4313 5347 
L 4313 4784 
L 6188 4784 
L 6188 4391 
L 4313 4391 
L 4313 3972 
L 6013 3972 
L 6013 3578 
L 4313 3578 
L 4313 3147 
L 6319 3147 
L 6319 2753 
L 1925 2753 
L 1925 3147 
z
M 931 5291 
L 1375 5291 
L 1375 4019 
L 1613 4191 
Q 1931 3816 2181 3497 
L 1831 3241 
Q 1638 3525 1375 3869 
L 1375 -816 
L 931 -816 
L 931 5291 
z
M 5369 1972 
L 2806 1972 
L 2806 1541 
L 5369 1541 
L 5369 1972 
z
M 2806 722 
L 5369 722 
L 5369 1153 
L 2806 1153 
L 2806 722 
z
M 319 3866 
L 719 3816 
Q 650 3059 494 2209 
Q 350 2247 88 2297 
Q 225 2909 319 3866 
z
" transform="scale(0.015625)"/>
      <path id="MicrosoftYaHei-51b5" d="M 2550 1984 
L 2063 1984 
L 2063 4997 
L 5763 4997 
L 5763 1984 
L 5275 1984 
L 5275 2259 
L 4675 2259 
L 4675 72 
Q 4675 -241 4969 -241 
L 5400 -241 
Q 5700 -241 5738 91 
Q 5781 384 5794 866 
Q 6006 778 6300 678 
Q 6256 184 6194 -147 
Q 6106 -691 5506 -691 
L 4888 -691 
Q 4188 -691 4188 -9 
L 4188 2259 
L 3541 2259 
Q 3519 1069 3163 453 
Q 2775 -253 1663 -866 
Q 1525 -653 1350 -441 
Q 2375 122 2725 716 
Q 3038 1216 3059 2259 
L 2550 2259 
L 2550 1984 
z
M 5275 4547 
L 2550 4547 
L 2550 2709 
L 5275 2709 
L 5275 4547 
z
M 1181 2416 
Q 1450 2228 1663 2103 
Q 1138 859 588 -497 
L 88 -197 
Q 681 959 1181 2416 
z
M 531 4884 
Q 1106 4322 1669 3672 
L 1238 3284 
Q 725 3953 163 4553 
L 531 4884 
z
" transform="scale(0.015625)"/>
     </defs>
     <use xlink:href="#MicrosoftYaHei-505c"/>
     <use xlink:href="#MicrosoftYaHei-673a" x="100"/>
     <use xlink:href="#MicrosoftYaHei-4f4d" x="200"/>
     <use xlink:href="#MicrosoftYaHei-5360" x="300"/>
     <use xlink:href="#MicrosoftYaHei-7528" x="400"/>
     <use xlink:href="#MicrosoftYaHei-60c5" x="500"/>
     <use xlink:href="#MicrosoftYaHei-51b5" x="600"/>
    </g>
   </g>
  </g>
  <g id="axes_2">
   <g id="patch_7">
    <path d="M 48.44 258.952 
L 1069.2 258.952 
L 1069.2 165.616 
L 48.44 165.616 
z
" style="fill: #ffffff"/>
   </g>
   <g id="matplotlib.axis_3">
    <g id="xtick_6">
     <g id="line2d_18">
      <path d="M 48.44 258.952 
L 48.44 165.616 
" clip-path="url(#p03a67c3d44)" style="fill: none; stroke: #b0b0b0; stroke-width: 0.8; stroke-linecap: square"/>
     </g>
     <g id="line2d_19">
      <g>
       <use xlink:href="#m135e3afb32" x="48.44" y="258.952" style="stroke: #000000; stroke-width: 0.8"/>
      </g>
     </g>
     <g id="text_11">
      <!-- 0 -->
      <g transform="translate(45.356406 273.94575)scale(0.1 -0.1)">
       <use xlink:href="#MicrosoftYaHei-Bold-30"/>
      </g>
     </g>
    </g>
    <g id="xtick_7">
     <g id="line2d_20">
      <path d="M 261.098333 258.952 
L 261.098333 165.616 
" clip-path="url(#p03a67c3d44)" style="fill: none; stroke: #b0b0b0; stroke-width: 0.8; stroke-linecap: square"/>
     </g>
     <g id="line2d_21">
      <g>
       <use xlink:href="#m135e3afb32" x="261.098333" y="258.952" style="stroke: #000000; stroke-width: 0.8"/>
      </g>
     </g>
     <g id="text_12">
      <!-- 5 -->
      <g transform="translate(258.01474 273.94575)scale(0.1 -0.1)">
       <use xlink:href="#MicrosoftYaHei-Bold-35"/>
      </g>
     </g>
    </g>
    <g id="xtick_8">
     <g id="line2d_22">
      <path d="M 473.756667 258.952 
L 473.756667 165.616 
" clip-path="url(#p03a67c3d44)" style="fill: none; stroke: #b0b0b0; stroke-width: 0.8; stroke-linecap: square"/>
     </g>
     <g id="line2d_23">
      <g>
       <use xlink:href="#m135e3afb32" x="473.756667" y="258.952" style="stroke: #000000; stroke-width: 0.8"/>
      </g>
     </g>
     <g id="text_13">
      <!-- 10 -->
      <g transform="translate(467.589479 273.94575)scale(0.1 -0.1)">
       <use xlink:href="#MicrosoftYaHei-Bold-31"/>
       <use xlink:href="#MicrosoftYaHei-Bold-30" x="61.669922"/>
      </g>
     </g>
    </g>
    <g id="xtick_9">
     <g id="line2d_24">
      <path d="M 686.415 258.952 
L 686.415 165.616 
" clip-path="url(#p03a67c3d44)" style="fill: none; stroke: #b0b0b0; stroke-width: 0.8; stroke-linecap: square"/>
     </g>
     <g id="line2d_25">
      <g>
       <use xlink:href="#m135e3afb32" x="686.415" y="258.952" style="stroke: #000000; stroke-width: 0.8"/>
      </g>
     </g>
     <g id="text_14">
      <!-- 15 -->
      <g transform="translate(680.247813 273.94575)scale(0.1 -0.1)">
       <use xlink:href="#MicrosoftYaHei-Bold-31"/>
       <use xlink:href="#MicrosoftYaHei-Bold-35" x="61.669922"/>
      </g>
     </g>
    </g>
    <g id="xtick_10">
     <g id="line2d_26">
      <path d="M 899.073333 258.952 
L 899.073333 165.616 
" clip-path="url(#p03a67c3d44)" style="fill: none; stroke: #b0b0b0; stroke-width: 0.8; stroke-linecap: square"/>
     </g>
     <g id="line2d_27">
      <g>
       <use xlink:href="#m135e3afb32" x="899.073333" y="258.952" style="stroke: #000000; stroke-width: 0.8"/>
      </g>
     </g>
     <g id="text_15">
      <!-- 20 -->
      <g transform="translate(892.906146 273.94575)scale(0.1 -0.1)">
       <use xlink:href="#MicrosoftYaHei-Bold-32"/>
       <use xlink:href="#MicrosoftYaHei-Bold-30" x="61.669922"/>
      </g>
     </g>
    </g>
   </g>
   <g id="matplotlib.axis_4">
    <g id="ytick_4">
     <g id="line2d_28">
      <path d="M 48.44 254.709455 
L 1069.2 254.709455 
" clip-path="url(#p03a67c3d44)" style="fill: none; stroke: #b0b0b0; stroke-width: 0.8; stroke-linecap: square"/>
     </g>
     <g id="line2d_29">
      <g>
       <use xlink:href="#m42e52aa2c2" x="48.44" y="254.709455" style="stroke: #000000; stroke-width: 0.8"/>
      </g>
     </g>
     <g id="text_16">
      <!-- 0 -->
      <g transform="translate(35.272813 258.70633)scale(0.1 -0.1)">
       <use xlink:href="#MicrosoftYaHei-Bold-30"/>
      </g>
     </g>
    </g>
    <g id="ytick_5">
     <g id="line2d_30">
      <path d="M 48.44 226.425818 
L 1069.2 226.425818 
" clip-path="url(#p03a67c3d44)" style="fill: none; stroke: #b0b0b0; stroke-width: 0.8; stroke-linecap: square"/>
     </g>
     <g id="line2d_31">
      <g>
       <use xlink:href="#m42e52aa2c2" x="48.44" y="226.425818" style="stroke: #000000; stroke-width: 0.8"/>
      </g>
     </g>
     <g id="text_17">
      <!-- 1 -->
      <g transform="translate(35.272813 230.422693)scale(0.1 -0.1)">
       <use xlink:href="#MicrosoftYaHei-Bold-31"/>
      </g>
     </g>
    </g>
    <g id="ytick_6">
     <g id="line2d_32">
      <path d="M 48.44 198.142182 
L 1069.2 198.142182 
" clip-path="url(#p03a67c3d44)" style="fill: none; stroke: #b0b0b0; stroke-width: 0.8; stroke-linecap: square"/>
     </g>
     <g id="line2d_33">
      <g>
       <use xlink:href="#m42e52aa2c2" x="48.44" y="198.142182" style="stroke: #000000; stroke-width: 0.8"/>
      </g>
     </g>
     <g id="text_18">
      <!-- 2 -->
      <g transform="translate(35.272813 202.139057)scale(0.1 -0.1)">
       <use xlink:href="#MicrosoftYaHei-Bold-32"/>
      </g>
     </g>
    </g>
    <g id="ytick_7">
     <g id="line2d_34">
      <path d="M 48.44 169.858545 
L 1069.2 169.858545 
" clip-path="url(#p03a67c3d44)" style="fill: none; stroke: #b0b0b0; stroke-width: 0.8; stroke-linecap: square"/>
     </g>
     <g id="line2d_35">
      <g>
       <use xlink:href="#m42e52aa2c2" x="48.44" y="169.858545" style="stroke: #000000; stroke-width: 0.8"/>
      </g>
     </g>
     <g id="text_19">
      <!-- 3 -->
      <g transform="translate(35.272813 173.85542)scale(0.1 -0.1)">
       <defs>
        <path id="MicrosoftYaHei-Bold-33" d="M 494 1053 
Q 978 691 1625 691 
Q 2034 691 2275 872 
Q 2516 1053 2516 1388 
Q 2516 1731 2230 1912 
Q 1944 2094 1428 2094 
L 997 2094 
L 997 2872 
L 1394 2872 
Q 2369 2872 2369 3528 
Q 2369 4147 1622 4147 
Q 1134 4147 675 3828 
L 675 4663 
Q 1175 4922 1853 4922 
Q 2541 4922 2969 4605 
Q 3397 4288 3397 3725 
Q 3397 2775 2434 2531 
L 2434 2516 
Q 2941 2459 3244 2145 
Q 3547 1831 3547 1381 
Q 3547 691 3042 303 
Q 2538 -84 1697 -84 
Q 950 -84 494 163 
L 494 1053 
z
" transform="scale(0.015625)"/>
       </defs>
       <use xlink:href="#MicrosoftYaHei-Bold-33"/>
      </g>
     </g>
    </g>
    <g id="text_20">
     <!-- 队列长度 -->
     <g transform="translate(28.786875 232.284)rotate(-90)scale(0.1 -0.1)">
      <defs>
       <path id="MicrosoftYaHei-961f" d="M 2456 1728 
Q 2663 603 1831 466 
Q 1575 422 1163 459 
Q 1113 716 1019 997 
Q 1369 916 1625 947 
Q 2125 997 1931 1747 
Q 1819 2266 1338 2866 
Q 1688 3772 1931 4566 
L 913 4566 
L 913 -841 
L 419 -841 
L 419 5003 
L 2469 5003 
L 2469 4566 
Q 2144 3609 1869 2947 
Q 2381 2272 2456 1728 
z
M 3738 5253 
L 4250 5253 
Q 4244 4366 4228 3656 
Q 4584 794 6325 -228 
Q 6094 -478 5913 -709 
Q 4522 291 4056 2316 
Q 3703 409 2094 -822 
Q 1950 -647 1725 -422 
Q 3688 972 3725 3697 
Q 3738 4216 3738 5253 
z
" transform="scale(0.015625)"/>
       <path id="MicrosoftYaHei-5217" d="M 1163 1953 
L 1469 2303 
Q 1944 1913 2334 1538 
Q 2753 2263 2925 3109 
L 1519 3109 
Q 1028 1984 313 1084 
Q 175 1403 63 1584 
Q 1006 2853 1516 4553 
L 269 4553 
L 269 5003 
L 3775 5003 
L 3775 4553 
L 2031 4553 
Q 1884 4038 1703 3559 
L 3438 3559 
L 3438 3103 
Q 2925 541 744 -853 
Q 581 -666 356 -472 
Q 1425 219 2069 1125 
Q 1713 1475 1163 1953 
z
M 5419 5228 
L 5919 5228 
L 5919 66 
Q 5919 -728 5200 -734 
Q 4856 -741 4181 -728 
Q 4150 -441 4081 -166 
Q 4725 -222 5031 -222 
Q 5419 -222 5419 197 
L 5419 5228 
z
M 4519 709 
L 4038 709 
L 4038 4534 
L 4519 4534 
L 4519 709 
z
" transform="scale(0.015625)"/>
       <path id="MicrosoftYaHei-957f" d="M 169 2766 
L 1269 2766 
L 1269 5316 
L 1781 5316 
L 1781 2766 
L 6194 2766 
L 6194 2278 
L 3456 2278 
Q 4238 566 6325 -78 
Q 6113 -359 5944 -591 
Q 3697 266 2925 2278 
L 1781 2278 
L 1781 16 
Q 2494 303 3294 678 
Q 3294 384 3319 116 
Q 2575 -191 1894 -528 
Q 1644 -666 1431 -834 
L 1056 -353 
Q 1269 -184 1269 103 
L 1269 2278 
L 169 2278 
L 169 2766 
z
M 2156 3528 
Q 3706 4047 5138 5109 
L 5463 4703 
Q 4000 3634 2400 3066 
Q 2300 3278 2156 3528 
z
" transform="scale(0.015625)"/>
       <path id="MicrosoftYaHei-5ea6" d="M 1550 1216 
L 1550 1628 
L 5469 1628 
L 5469 1222 
Q 4903 613 4147 163 
Q 5050 -200 6263 -309 
L 6019 -797 
Q 4625 -603 3644 -109 
Q 2600 -619 1250 -866 
Q 1150 -666 994 -416 
Q 2231 -222 3166 166 
Q 2497 600 2066 1216 
L 1550 1216 
z
M 1363 3541 
L 2294 3541 
L 2294 4066 
L 2769 4066 
L 2769 3541 
L 4538 3541 
L 4538 4072 
L 5013 4072 
L 5013 3541 
L 6150 3541 
L 6150 3128 
L 5013 3128 
L 5013 1928 
L 4538 1928 
L 4538 2147 
L 2769 2147 
L 2769 1922 
L 2294 1922 
L 2294 3128 
L 1363 3128 
L 1363 3541 
z
M 3025 5172 
L 3481 5391 
Q 3694 5056 3909 4634 
L 6213 4634 
L 6213 4197 
L 1225 4197 
L 1225 2316 
Q 1225 178 394 -872 
Q 238 -666 38 -447 
Q 725 397 738 2347 
L 738 4634 
L 3331 4634 
Q 3188 4909 3025 5172 
z
M 2769 2547 
L 4538 2547 
L 4538 3128 
L 2769 3128 
L 2769 2547 
z
M 4819 1216 
L 2588 1216 
Q 3031 728 3656 391 
Q 4334 741 4819 1216 
z
" transform="scale(0.015625)"/>
      </defs>
      <use xlink:href="#MicrosoftYaHei-961f"/>
      <use xlink:href="#MicrosoftYaHei-5217" x="100"/>
      <use xlink:href="#MicrosoftYaHei-957f" x="200"/>
      <use xlink:href="#MicrosoftYaHei-5ea6" x="300"/>
     </g>
    </g>
   </g>
   <g id="line2d_36">
    <path d="M 48.44 254.709455 
L 144.13625 254.709455 
L 147.680556 226.425818 
L 151.224861 254.709455 
L 158.313472 254.709455 
L 161.857778 226.425818 
L 165.402083 254.709455 
L 176.035 254.709455 
L 179.579306 226.425818 
L 183.123611 254.709455 
L 207.93375 254.709455 
L 211.478056 226.425818 
L 215.022361 254.709455 
L 218.566667 254.709455 
L 222.110972 226.425818 
L 225.655278 254.709455 
L 232.743889 254.709455 
L 236.288194 226.425818 
L 239.8325 254.709455 
L 243.376806 254.709455 
L 246.921111 226.425818 
L 250.465417 254.709455 
L 254.009722 254.709455 
L 257.554028 226.425818 
L 261.098333 254.709455 
L 275.275556 254.709455 
L 278.819861 226.425818 
L 282.364167 254.709455 
L 296.541389 254.709455 
L 300.085694 226.425818 
L 303.63 254.709455 
L 310.718611 254.709455 
L 314.262917 226.425818 
L 317.807222 226.425818 
L 321.351528 254.709455 
L 331.984444 254.709455 
L 335.52875 226.425818 
L 346.161667 226.425818 
L 349.705972 254.709455 
L 353.250278 226.425818 
L 356.794583 254.709455 
L 360.338889 254.709455 
L 363.883194 226.425818 
L 367.4275 254.709455 
L 370.971806 226.425818 
L 374.516111 254.709455 
L 385.149028 254.709455 
L 388.693333 226.425818 
L 392.237639 254.709455 
L 399.32625 254.709455 
L 402.870556 198.142182 
L 409.959167 254.709455 
L 413.503472 226.425818 
L 417.047778 254.709455 
L 420.592083 226.425818 
L 427.680694 226.425818 
L 431.225 254.709455 
L 434.769306 198.142182 
L 438.313611 254.709455 
L 441.857917 226.425818 
L 445.402222 226.425818 
L 448.946528 254.709455 
L 452.490833 226.425818 
L 463.12375 226.425818 
L 466.668056 254.709455 
L 470.212361 226.425818 
L 473.756667 254.709455 
L 480.845278 198.142182 
L 487.933889 254.709455 
L 491.478194 198.142182 
L 495.0225 226.425818 
L 516.288333 226.425818 
L 519.832639 254.709455 
L 526.92125 254.709455 
L 530.465556 226.425818 
L 534.009861 226.425818 
L 537.554167 254.709455 
L 541.098472 254.709455 
L 548.187083 198.142182 
L 551.731389 254.709455 
L 558.82 254.709455 
L 562.364306 226.425818 
L 565.908611 226.425818 
L 569.452917 169.858545 
L 572.997222 226.425818 
L 576.541528 226.425818 
L 580.085833 198.142182 
L 587.174444 198.142182 
L 590.71875 226.425818 
L 601.351667 226.425818 
L 604.895972 198.142182 
L 608.440278 226.425818 
L 611.984583 198.142182 
L 615.528889 226.425818 
L 619.073194 226.425818 
L 622.6175 198.142182 
L 626.161806 254.709455 
L 629.706111 198.142182 
L 636.794722 198.142182 
L 640.339028 226.425818 
L 643.883333 198.142182 
L 647.427639 226.425818 
L 654.51625 226.425818 
L 658.060556 198.142182 
L 661.604861 254.709455 
L 665.149167 226.425818 
L 668.693472 226.425818 
L 672.237778 169.858545 
L 679.326389 226.425818 
L 682.870694 198.142182 
L 686.415 254.709455 
L 689.959306 226.425818 
L 697.047917 226.425818 
L 700.592222 198.142182 
L 704.136528 226.425818 
L 711.225139 226.425818 
L 714.769444 254.709455 
L 718.31375 226.425818 
L 721.858056 226.425818 
L 725.402361 198.142182 
L 732.490972 254.709455 
L 736.035278 254.709455 
L 739.579583 226.425818 
L 746.668194 226.425818 
L 750.2125 254.709455 
L 753.756806 254.709455 
L 757.301111 198.142182 
L 760.845417 254.709455 
L 767.934028 198.142182 
L 771.478333 226.425818 
L 775.022639 226.425818 
L 778.566944 254.709455 
L 782.11125 198.142182 
L 785.655556 254.709455 
L 789.199861 226.425818 
L 792.744167 226.425818 
L 796.288472 254.709455 
L 799.832778 226.425818 
L 803.377083 254.709455 
L 806.921389 226.425818 
L 817.554306 226.425818 
L 821.098611 198.142182 
L 824.642917 254.709455 
L 828.187222 226.425818 
L 835.275833 226.425818 
L 838.820139 254.709455 
L 842.364444 254.709455 
L 845.90875 198.142182 
L 849.453056 254.709455 
L 856.541667 198.142182 
L 860.085972 226.425818 
L 863.630278 198.142182 
L 867.174583 226.425818 
L 870.718889 198.142182 
L 874.263194 254.709455 
L 877.8075 226.425818 
L 881.351806 254.709455 
L 902.617639 254.709455 
L 906.161944 198.142182 
L 913.250556 254.709455 
L 930.972083 254.709455 
L 934.516389 226.425818 
L 938.060694 226.425818 
L 941.605 254.709455 
L 948.693611 254.709455 
L 952.237917 226.425818 
L 955.782222 254.709455 
L 977.048056 254.709455 
L 980.592361 226.425818 
L 984.136667 254.709455 
L 991.225278 254.709455 
L 994.769583 226.425818 
L 998.313889 254.709455 
L 1016.035417 254.709455 
L 1019.579722 226.425818 
L 1023.124028 254.709455 
L 1037.30125 254.709455 
L 1040.845556 226.425818 
L 1044.389861 254.709455 
L 1051.478472 254.709455 
L 1055.022778 226.425818 
L 1058.567083 254.709455 
L 1065.655694 254.709455 
L 1065.655694 254.709455 
" clip-path="url(#p03a67c3d44)" style="fill: none; stroke: #ff0000; stroke-width: 1.5; stroke-linecap: square"/>
   </g>
   <g id="patch_8">
    <path d="M 48.44 258.952 
L 48.44 165.616 
" style="fill: none; stroke: #000000; stroke-width: 0.8; stroke-linejoin: miter; stroke-linecap: square"/>
   </g>
   <g id="patch_9">
    <path d="M 1069.2 258.952 
L 1069.2 165.616 
" style="fill: none; stroke: #000000; stroke-width: 0.8; stroke-linejoin: miter; stroke-linecap: square"/>
   </g>
   <g id="patch_10">
    <path d="M 48.44 258.952 
L 1069.2 258.952 
" style="fill: none; stroke: #000000; stroke-width: 0.8; stroke-linejoin: miter; stroke-linecap: square"/>
   </g>
   <g id="patch_11">
    <path d="M 48.44 165.616 
L 1069.2 165.616 
" style="fill: none; stroke: #000000; stroke-width: 0.8; stroke-linejoin: miter; stroke-linecap: square"/>
   </g>
   <g id="text_21">
    <!-- 降落队列长度 -->
    <g transform="translate(522.82 159.616)scale(0.12 -0.12)">
     <defs>
      <path id="MicrosoftYaHei-964d" d="M 2263 3616 
Q 3000 4322 3494 5309 
L 3919 5122 
Q 3803 4919 3688 4728 
L 5788 4728 
L 5788 4303 
Q 5403 3681 4713 3213 
Q 5269 2972 6325 2803 
Q 6294 2728 6125 2353 
Q 4900 2594 4247 2934 
Q 3481 2525 2419 2259 
Q 2319 2491 2194 2672 
Q 3122 2863 3828 3206 
Q 3438 3519 3156 3953 
Q 2878 3591 2588 3297 
Q 2444 3466 2263 3616 
z
M 2181 1678 
Q 2344 509 1588 334 
Q 1388 291 1044 328 
Q 975 597 906 834 
Q 1213 753 1419 784 
Q 1844 859 1706 1678 
Q 1594 2303 1206 2803 
Q 1481 3703 1688 4472 
L 869 4472 
L 869 -841 
L 400 -841 
L 400 4909 
L 2200 4909 
L 2200 4472 
Q 1806 3222 1700 2884 
Q 2094 2316 2181 1678 
z
M 2925 584 
L 4125 584 
L 4125 1591 
L 2500 1591 
L 2500 2016 
L 4125 2016 
L 4125 2597 
L 4594 2597 
L 4594 2016 
L 6088 2016 
L 6088 1591 
L 4594 1591 
L 4594 584 
L 6138 584 
L 6138 159 
L 4594 159 
L 4594 -847 
L 4125 -847 
L 4125 159 
L 2456 159 
L 2456 616 
L 2700 1422 
L 3169 1422 
L 2925 584 
z
M 5244 4303 
L 3422 4303 
Q 3806 3753 4269 3450 
Q 4850 3813 5244 4303 
z
" transform="scale(0.015625)"/>
      <path id="MicrosoftYaHei-843d" d="M 1663 2447 
Q 2500 3172 2919 4053 
L 3388 3953 
Q 3278 3744 3156 3547 
L 5594 3547 
L 5594 3147 
Q 5178 2559 4447 2122 
Q 5256 1813 6344 1753 
Q 6219 1491 6138 1272 
Q 4850 1447 3969 1866 
Q 3063 1438 1781 1191 
Q 1694 1384 1569 1616 
Q 2675 1772 3513 2116 
Q 3009 2434 2681 2856 
Q 2369 2456 2000 2109 
Q 1856 2272 1663 2447 
z
M 2288 1203 
L 5519 1203 
L 5519 -822 
L 5056 -822 
L 5056 -491 
L 2750 -491 
L 2750 -822 
L 2288 -822 
L 2288 1203 
z
M 138 4691 
L 1863 4691 
L 1863 5328 
L 2338 5328 
L 2338 4691 
L 4075 4691 
L 4075 5328 
L 4550 5328 
L 4550 4691 
L 6263 4691 
L 6263 4266 
L 4550 4266 
L 4550 3809 
L 4075 3809 
L 4075 4266 
L 2338 4266 
L 2338 3784 
L 1863 3784 
L 1863 4266 
L 138 4266 
L 138 4691 
z
M 5056 791 
L 2750 791 
L 2750 -78 
L 5056 -78 
L 5056 791 
z
M 181 -622 
Q 619 278 1031 1478 
Q 1244 1359 1500 1247 
Q 1119 322 700 -834 
L 181 -622 
z
M 5069 3147 
L 2972 3147 
Q 3381 2656 3981 2334 
Q 4622 2675 5069 3147 
z
M 44 2459 
L 325 2828 
Q 850 2522 1356 2172 
Q 1181 1953 1038 1759 
Q 575 2122 44 2459 
z
M 475 3641 
L 756 3991 
Q 1350 3616 1738 3316 
Q 1569 3109 1438 2928 
Q 956 3316 475 3641 
z
" transform="scale(0.015625)"/>
     </defs>
     <use xlink:href="#MicrosoftYaHei-964d"/>
     <use xlink:href="#MicrosoftYaHei-843d" x="100"/>
     <use xlink:href="#MicrosoftYaHei-961f" x="200"/>
     <use xlink:href="#MicrosoftYaHei-5217" x="300"/>
     <use xlink:href="#MicrosoftYaHei-957f" x="400"/>
     <use xlink:href="#MicrosoftYaHei-5ea6" x="500"/>
    </g>
   </g>
  </g>
  <g id="axes_3">
   <g id="patch_12">
    <path d="M 48.44 397.688 
L 1069.2 397.688 
L 1069.2 304.352 
L 48.44 304.352 
z
" style="fill: #ffffff"/>
   </g>
   <g id="matplotlib.axis_5">
    <g id="xtick_11">
     <g id="line2d_37">
      <path d="M 48.44 397.688 
L 48.44 304.352 
" clip-path="url(#pc0c84dba66)" style="fill: none; stroke: #b0b0b0; stroke-width: 0.8; stroke-linecap: square"/>
     </g>
     <g id="line2d_38">
      <g>
       <use xlink:href="#m135e3afb32" x="48.44" y="397.688" style="stroke: #000000; stroke-width: 0.8"/>
      </g>
     </g>
     <g id="text_22">
      <!-- 0 -->
      <g transform="translate(45.356406 412.68175)scale(0.1 -0.1)">
       <use xlink:href="#MicrosoftYaHei-Bold-30"/>
      </g>
     </g>
    </g>
    <g id="xtick_12">
     <g id="line2d_39">
      <path d="M 261.098333 397.688 
L 261.098333 304.352 
" clip-path="url(#pc0c84dba66)" style="fill: none; stroke: #b0b0b0; stroke-width: 0.8; stroke-linecap: square"/>
     </g>
     <g id="line2d_40">
      <g>
       <use xlink:href="#m135e3afb32" x="261.098333" y="397.688" style="stroke: #000000; stroke-width: 0.8"/>
      </g>
     </g>
     <g id="text_23">
      <!-- 5 -->
      <g transform="translate(258.01474 412.68175)scale(0.1 -0.1)">
       <use xlink:href="#MicrosoftYaHei-Bold-35"/>
      </g>
     </g>
    </g>
    <g id="xtick_13">
     <g id="line2d_41">
      <path d="M 473.756667 397.688 
L 473.756667 304.352 
" clip-path="url(#pc0c84dba66)" style="fill: none; stroke: #b0b0b0; stroke-width: 0.8; stroke-linecap: square"/>
     </g>
     <g id="line2d_42">
      <g>
       <use xlink:href="#m135e3afb32" x="473.756667" y="397.688" style="stroke: #000000; stroke-width: 0.8"/>
      </g>
     </g>
     <g id="text_24">
      <!-- 10 -->
      <g transform="translate(467.589479 412.68175)scale(0.1 -0.1)">
       <use xlink:href="#MicrosoftYaHei-Bold-31"/>
       <use xlink:href="#MicrosoftYaHei-Bold-30" x="61.669922"/>
      </g>
     </g>
    </g>
    <g id="xtick_14">
     <g id="line2d_43">
      <path d="M 686.415 397.688 
L 686.415 304.352 
" clip-path="url(#pc0c84dba66)" style="fill: none; stroke: #b0b0b0; stroke-width: 0.8; stroke-linecap: square"/>
     </g>
     <g id="line2d_44">
      <g>
       <use xlink:href="#m135e3afb32" x="686.415" y="397.688" style="stroke: #000000; stroke-width: 0.8"/>
      </g>
     </g>
     <g id="text_25">
      <!-- 15 -->
      <g transform="translate(680.247813 412.68175)scale(0.1 -0.1)">
       <use xlink:href="#MicrosoftYaHei-Bold-31"/>
       <use xlink:href="#MicrosoftYaHei-Bold-35" x="61.669922"/>
      </g>
     </g>
    </g>
    <g id="xtick_15">
     <g id="line2d_45">
      <path d="M 899.073333 397.688 
L 899.073333 304.352 
" clip-path="url(#pc0c84dba66)" style="fill: none; stroke: #b0b0b0; stroke-width: 0.8; stroke-linecap: square"/>
     </g>
     <g id="line2d_46">
      <g>
       <use xlink:href="#m135e3afb32" x="899.073333" y="397.688" style="stroke: #000000; stroke-width: 0.8"/>
      </g>
     </g>
     <g id="text_26">
      <!-- 20 -->
      <g transform="translate(892.906146 412.68175)scale(0.1 -0.1)">
       <use xlink:href="#MicrosoftYaHei-Bold-32"/>
       <use xlink:href="#MicrosoftYaHei-Bold-30" x="61.669922"/>
      </g>
     </g>
    </g>
   </g>
   <g id="matplotlib.axis_6">
    <g id="ytick_8">
     <g id="line2d_47">
      <path d="M 48.44 393.445455 
L 1069.2 393.445455 
" clip-path="url(#pc0c84dba66)" style="fill: none; stroke: #b0b0b0; stroke-width: 0.8; stroke-linecap: square"/>
     </g>
     <g id="line2d_48">
      <g>
       <use xlink:href="#m42e52aa2c2" x="48.44" y="393.445455" style="stroke: #000000; stroke-width: 0.8"/>
      </g>
     </g>
     <g id="text_27">
      <!-- 0 -->
      <g transform="translate(35.272813 397.44233)scale(0.1 -0.1)">
       <use xlink:href="#MicrosoftYaHei-Bold-30"/>
      </g>
     </g>
    </g>
    <g id="ytick_9">
     <g id="line2d_49">
      <path d="M 48.44 359.505091 
L 1069.2 359.505091 
" clip-path="url(#pc0c84dba66)" style="fill: none; stroke: #b0b0b0; stroke-width: 0.8; stroke-linecap: square"/>
     </g>
     <g id="line2d_50">
      <g>
       <use xlink:href="#m42e52aa2c2" x="48.44" y="359.505091" style="stroke: #000000; stroke-width: 0.8"/>
      </g>
     </g>
     <g id="text_28">
      <!-- 2 -->
      <g transform="translate(35.272813 363.501966)scale(0.1 -0.1)">
       <use xlink:href="#MicrosoftYaHei-Bold-32"/>
      </g>
     </g>
    </g>
    <g id="ytick_10">
     <g id="line2d_51">
      <path d="M 48.44 325.564727 
L 1069.2 325.564727 
" clip-path="url(#pc0c84dba66)" style="fill: none; stroke: #b0b0b0; stroke-width: 0.8; stroke-linecap: square"/>
     </g>
     <g id="line2d_52">
      <g>
       <use xlink:href="#m42e52aa2c2" x="48.44" y="325.564727" style="stroke: #000000; stroke-width: 0.8"/>
      </g>
     </g>
     <g id="text_29">
      <!-- 4 -->
      <g transform="translate(35.272813 329.561602)scale(0.1 -0.1)">
       <use xlink:href="#MicrosoftYaHei-Bold-34"/>
      </g>
     </g>
    </g>
    <g id="text_30">
     <!-- 占用数量 -->
     <g transform="translate(28.786875 371.02)rotate(-90)scale(0.1 -0.1)">
      <use xlink:href="#MicrosoftYaHei-5360"/>
      <use xlink:href="#MicrosoftYaHei-7528" x="100"/>
      <use xlink:href="#MicrosoftYaHei-6570" x="200"/>
      <use xlink:href="#MicrosoftYaHei-91cf" x="300"/>
     </g>
    </g>
   </g>
   <g id="line2d_53">
    <path d="M 48.44 393.445455 
L 55.528611 359.505091 
L 73.250139 359.505091 
L 76.794444 376.475273 
L 80.33875 359.505091 
L 83.883056 359.505091 
L 87.427361 376.475273 
L 90.971667 359.505091 
L 94.515972 376.475273 
L 98.060278 359.505091 
L 108.693194 359.505091 
L 112.2375 376.475273 
L 115.781806 359.505091 
L 119.326111 359.505091 
L 122.870417 376.475273 
L 126.414722 359.505091 
L 129.959028 376.475273 
L 133.503333 359.505091 
L 137.047639 376.475273 
L 140.591944 359.505091 
L 144.13625 376.475273 
L 151.224861 342.534909 
L 154.769167 376.475273 
L 158.313472 359.505091 
L 168.946389 359.505091 
L 172.490694 376.475273 
L 176.035 359.505091 
L 186.667917 359.505091 
L 190.212222 376.475273 
L 193.756528 359.505091 
L 204.389444 359.505091 
L 207.93375 376.475273 
L 211.478056 359.505091 
L 236.288194 359.505091 
L 239.8325 342.534909 
L 243.376806 376.475273 
L 246.921111 359.505091 
L 264.642639 359.505091 
L 268.186944 376.475273 
L 271.73125 359.505091 
L 275.275556 376.475273 
L 282.364167 342.534909 
L 285.908472 359.505091 
L 292.997083 359.505091 
L 296.541389 376.475273 
L 300.085694 359.505091 
L 303.63 359.505091 
L 307.174306 342.534909 
L 310.718611 376.475273 
L 317.807222 342.534909 
L 321.351528 359.505091 
L 328.440139 359.505091 
L 331.984444 376.475273 
L 335.52875 359.505091 
L 339.073056 359.505091 
L 342.617361 342.534909 
L 346.161667 342.534909 
L 349.705972 359.505091 
L 378.060417 359.505091 
L 381.604722 342.534909 
L 385.149028 359.505091 
L 392.237639 359.505091 
L 395.781944 376.475273 
L 399.32625 359.505091 
L 402.870556 359.505091 
L 406.414861 325.564727 
L 409.959167 359.505091 
L 413.503472 359.505091 
L 417.047778 342.534909 
L 420.592083 359.505091 
L 424.136389 342.534909 
L 427.680694 359.505091 
L 431.225 342.534909 
L 438.313611 342.534909 
L 441.857917 359.505091 
L 445.402222 359.505091 
L 448.946528 342.534909 
L 452.490833 359.505091 
L 456.035139 359.505091 
L 459.579444 342.534909 
L 463.12375 342.534909 
L 466.668056 359.505091 
L 480.845278 359.505091 
L 484.389583 325.564727 
L 487.933889 359.505091 
L 491.478194 359.505091 
L 495.0225 325.564727 
L 498.566806 359.505091 
L 502.111111 342.534909 
L 505.655417 342.534909 
L 509.199722 359.505091 
L 512.744028 342.534909 
L 516.288333 359.505091 
L 519.832639 342.534909 
L 523.376944 359.505091 
L 526.92125 342.534909 
L 530.465556 359.505091 
L 534.009861 359.505091 
L 537.554167 342.534909 
L 541.098472 376.475273 
L 548.187083 342.534909 
L 551.731389 342.534909 
L 558.82 376.475273 
L 565.908611 342.534909 
L 569.452917 342.534909 
L 572.997222 325.564727 
L 580.085833 359.505091 
L 583.630139 325.564727 
L 587.174444 342.534909 
L 590.71875 325.564727 
L 594.263056 342.534909 
L 615.528889 342.534909 
L 619.073194 325.564727 
L 622.6175 342.534909 
L 626.161806 342.534909 
L 629.706111 359.505091 
L 633.250417 325.564727 
L 636.794722 342.534909 
L 640.339028 308.594545 
L 643.883333 325.564727 
L 647.427639 325.564727 
L 654.51625 359.505091 
L 658.060556 342.534909 
L 661.604861 342.534909 
L 665.149167 359.505091 
L 668.693472 359.505091 
L 672.237778 342.534909 
L 675.782083 308.594545 
L 679.326389 342.534909 
L 689.959306 342.534909 
L 693.503611 359.505091 
L 697.047917 342.534909 
L 707.680833 342.534909 
L 711.225139 359.505091 
L 714.769444 342.534909 
L 718.31375 359.505091 
L 721.858056 359.505091 
L 725.402361 342.534909 
L 732.490972 342.534909 
L 736.035278 376.475273 
L 739.579583 359.505091 
L 743.123889 359.505091 
L 746.668194 342.534909 
L 750.2125 342.534909 
L 753.756806 376.475273 
L 760.845417 342.534909 
L 775.022639 342.534909 
L 778.566944 325.564727 
L 782.11125 359.505091 
L 785.655556 342.534909 
L 789.199861 359.505091 
L 792.744167 342.534909 
L 796.288472 359.505091 
L 806.921389 359.505091 
L 810.465694 342.534909 
L 814.01 359.505091 
L 817.554306 342.534909 
L 824.642917 342.534909 
L 828.187222 359.505091 
L 831.731528 359.505091 
L 835.275833 342.534909 
L 838.820139 359.505091 
L 845.90875 359.505091 
L 849.453056 342.534909 
L 852.997361 359.505091 
L 856.541667 342.534909 
L 860.085972 342.534909 
L 863.630278 359.505091 
L 867.174583 325.564727 
L 870.718889 342.534909 
L 874.263194 342.534909 
L 877.8075 359.505091 
L 884.896111 359.505091 
L 888.440417 376.475273 
L 891.984722 359.505091 
L 895.529028 376.475273 
L 899.073333 359.505091 
L 902.617639 376.475273 
L 906.161944 359.505091 
L 909.70625 325.564727 
L 913.250556 359.505091 
L 916.794861 359.505091 
L 920.339167 376.475273 
L 923.883472 359.505091 
L 938.060694 359.505091 
L 941.605 342.534909 
L 945.149306 376.475273 
L 948.693611 359.505091 
L 952.237917 376.475273 
L 955.782222 342.534909 
L 959.326528 359.505091 
L 962.870833 359.505091 
L 966.415139 342.534909 
L 969.959444 359.505091 
L 973.50375 359.505091 
L 977.048056 376.475273 
L 984.136667 342.534909 
L 987.680972 376.475273 
L 991.225278 359.505091 
L 994.769583 376.475273 
L 998.313889 342.534909 
L 1005.4025 376.475273 
L 1008.946806 359.505091 
L 1033.756944 359.505091 
L 1037.30125 376.475273 
L 1040.845556 359.505091 
L 1055.022778 359.505091 
L 1058.567083 342.534909 
L 1062.111389 359.505091 
L 1065.655694 359.505091 
L 1065.655694 359.505091 
" clip-path="url(#pc0c84dba66)" style="fill: none; stroke: #1f77b4; stroke-width: 1.5; stroke-linecap: square"/>
   </g>
   <g id="patch_13">
    <path d="M 48.44 397.688 
L 48.44 304.352 
" style="fill: none; stroke: #000000; stroke-width: 0.8; stroke-linejoin: miter; stroke-linecap: square"/>
   </g>
   <g id="patch_14">
    <path d="M 1069.2 397.688 
L 1069.2 304.352 
" style="fill: none; stroke: #000000; stroke-width: 0.8; stroke-linejoin: miter; stroke-linecap: square"/>
   </g>
   <g id="patch_15">
    <path d="M 48.44 397.688 
L 1069.2 397.688 
" style="fill: none; stroke: #000000; stroke-width: 0.8; stroke-linejoin: miter; stroke-linecap: square"/>
   </g>
   <g id="patch_16">
    <path d="M 48.44 304.352 
L 1069.2 304.352 
" style="fill: none; stroke: #000000; stroke-width: 0.8; stroke-linejoin: miter; stroke-linecap: square"/>
   </g>
   <g id="text_31">
    <!-- 降落空域走廊占用情况 -->
    <g transform="translate(498.82 298.352)scale(0.12 -0.12)">
     <defs>
      <path id="MicrosoftYaHei-7a7a" d="M 331 -34 
L 2931 -34 
L 2931 1603 
L 975 1603 
L 975 2078 
L 5425 2078 
L 5425 1603 
L 3463 1603 
L 3463 -34 
L 6069 -34 
L 6069 -509 
L 331 -509 
L 331 -34 
z
M 369 4528 
L 3084 4528 
Q 2941 4800 2725 5141 
L 3188 5366 
Q 3444 4997 3631 4641 
L 3403 4528 
L 6038 4528 
L 6038 3316 
L 5525 3316 
L 5525 4053 
L 881 4053 
L 881 3316 
L 369 3316 
L 369 4528 
z
M 2381 3741 
L 2750 3384 
Q 1538 2434 469 1834 
Q 275 2091 94 2241 
Q 1319 2866 2381 3741 
z
M 3988 3734 
Q 5300 2953 6269 2259 
L 5913 1828 
Q 4969 2566 3688 3372 
L 3988 3734 
z
" transform="scale(0.015625)"/>
      <path id="MicrosoftYaHei-57df" d="M 3231 -522 
Q 3941 63 4484 841 
Q 4269 1816 4219 3803 
L 2025 3803 
L 2025 4241 
L 4206 4241 
Q 4197 4747 4194 5328 
L 4675 5328 
Q 4669 4759 4675 4241 
L 6219 4241 
L 6219 3803 
L 4684 3803 
Q 4716 2384 4853 1419 
Q 5300 2191 5606 3122 
L 6050 2934 
Q 5572 1691 4981 763 
Q 5113 269 5313 -41 
Q 5481 -309 5600 -309 
Q 5713 -309 5756 -41 
Q 5813 284 5844 934 
Q 6113 828 6313 772 
Q 6225 34 6163 -272 
Q 6056 -822 5656 -828 
Q 5350 -822 5088 -522 
Q 4828 -234 4647 275 
Q 4169 -372 3625 -834 
Q 3450 -684 3231 -522 
z
M 69 441 
Q 478 566 875 697 
L 875 3141 
L 138 3141 
L 138 3578 
L 875 3578 
L 875 5316 
L 1338 5316 
L 1338 3578 
L 2031 3578 
L 2031 3141 
L 1338 3141 
L 1338 853 
Q 1666 966 1988 1084 
Q 1988 1016 2031 622 
Q 1156 303 188 -66 
L 69 441 
z
M 2175 3103 
L 3769 3103 
L 3769 1159 
L 3338 1159 
L 3338 1303 
L 2606 1303 
L 2606 1084 
L 2175 1084 
L 2175 3103 
z
M 1694 353 
Q 2825 528 3981 766 
Q 3975 666 4006 341 
Q 3081 172 1856 -84 
L 1694 353 
z
M 3338 2703 
L 2606 2703 
L 2606 1703 
L 3338 1703 
L 3338 2703 
z
M 5188 5241 
Q 5650 4916 5931 4666 
L 5644 4334 
Q 5363 4603 4919 4953 
L 5188 5241 
z
" transform="scale(0.015625)"/>
      <path id="MicrosoftYaHei-8d70" d="M 163 -416 
Q 1125 497 1331 1978 
L 1800 1866 
Q 1688 1291 1513 809 
Q 2044 -84 3006 -159 
L 3006 2234 
L 3519 2234 
L 3519 1434 
L 5600 1434 
L 5600 997 
L 3519 997 
L 3519 -172 
Q 4931 -184 6269 -134 
Q 6175 -378 6094 -628 
Q 4269 -653 3063 -609 
Q 1950 -572 1319 353 
Q 981 -341 469 -816 
Q 313 -584 163 -416 
z
M 6100 2384 
L 300 2384 
L 300 2822 
L 2894 2822 
L 2894 3884 
L 850 3884 
L 850 4322 
L 2894 4322 
L 2894 5297 
L 3406 5297 
L 3406 4322 
L 5550 4322 
L 5550 3884 
L 3406 3884 
L 3406 2822 
L 6100 2822 
L 6100 2384 
z
" transform="scale(0.015625)"/>
      <path id="MicrosoftYaHei-5eca" d="M 3013 1047 
Q 3444 503 3881 -216 
L 3463 -447 
Q 3338 -191 3163 78 
Q 2606 -191 2125 -484 
Q 1994 -559 1788 -747 
L 1431 -278 
Q 1625 -97 1625 134 
L 1625 3472 
L 2406 3472 
Q 2313 3666 2169 3922 
L 2569 4116 
Q 2750 3822 2906 3472 
L 3588 3472 
L 3588 1053 
L 3150 1053 
L 3150 1197 
L 2063 1197 
L 2063 -3 
Q 2488 203 2944 422 
Q 2819 622 2638 834 
L 3013 1047 
z
M 1144 2428 
Q 1150 241 450 -791 
Q 288 -578 81 -391 
Q 688 428 688 2203 
L 688 4603 
L 3306 4603 
Q 3169 4834 2994 5103 
L 3419 5334 
Q 3613 5053 3875 4603 
L 6275 4603 
L 6275 4166 
L 1144 4166 
L 1144 2428 
z
M 6075 853 
Q 6194 -72 5394 -184 
Q 5113 -222 4669 -159 
Q 4644 41 4581 347 
Q 4994 272 5238 272 
Q 5713 272 5613 872 
Q 5531 1322 4869 1891 
Q 5156 2403 5531 3247 
L 4538 3247 
L 4538 -891 
L 4100 -891 
L 4100 3666 
L 6025 3666 
L 6025 3216 
Q 5731 2597 5400 1984 
Q 6013 1441 6075 853 
z
M 3150 3097 
L 2063 3097 
L 2063 2516 
L 3150 2516 
L 3150 3097 
z
M 2063 1572 
L 3150 1572 
L 3150 2153 
L 2063 2153 
L 2063 1572 
z
" transform="scale(0.015625)"/>
     </defs>
     <use xlink:href="#MicrosoftYaHei-964d"/>
     <use xlink:href="#MicrosoftYaHei-843d" x="100"/>
     <use xlink:href="#MicrosoftYaHei-7a7a" x="200"/>
     <use xlink:href="#MicrosoftYaHei-57df" x="300"/>
     <use xlink:href="#MicrosoftYaHei-8d70" x="400"/>
     <use xlink:href="#MicrosoftYaHei-5eca" x="500"/>
     <use xlink:href="#MicrosoftYaHei-5360" x="600"/>
     <use xlink:href="#MicrosoftYaHei-7528" x="700"/>
     <use xlink:href="#MicrosoftYaHei-60c5" x="800"/>
     <use xlink:href="#MicrosoftYaHei-51b5" x="900"/>
    </g>
   </g>
  </g>
  <g id="axes_4">
   <g id="patch_17">
    <path d="M 48.44 536.424 
L 1069.2 536.424 
L 1069.2 443.088 
L 48.44 443.088 
z
" style="fill: #ffffff"/>
   </g>
   <g id="matplotlib.axis_7">
    <g id="xtick_16">
     <g id="line2d_54">
      <path d="M 48.44 536.424 
L 48.44 443.088 
" clip-path="url(#p72687e4ea6)" style="fill: none; stroke: #b0b0b0; stroke-width: 0.8; stroke-linecap: square"/>
     </g>
     <g id="line2d_55">
      <g>
       <use xlink:href="#m135e3afb32" x="48.44" y="536.424" style="stroke: #000000; stroke-width: 0.8"/>
      </g>
     </g>
     <g id="text_32">
      <!-- 0 -->
      <g transform="translate(45.356406 551.41775)scale(0.1 -0.1)">
       <use xlink:href="#MicrosoftYaHei-Bold-30"/>
      </g>
     </g>
    </g>
    <g id="xtick_17">
     <g id="line2d_56">
      <path d="M 261.098333 536.424 
L 261.098333 443.088 
" clip-path="url(#p72687e4ea6)" style="fill: none; stroke: #b0b0b0; stroke-width: 0.8; stroke-linecap: square"/>
     </g>
     <g id="line2d_57">
      <g>
       <use xlink:href="#m135e3afb32" x="261.098333" y="536.424" style="stroke: #000000; stroke-width: 0.8"/>
      </g>
     </g>
     <g id="text_33">
      <!-- 5 -->
      <g transform="translate(258.01474 551.41775)scale(0.1 -0.1)">
       <use xlink:href="#MicrosoftYaHei-Bold-35"/>
      </g>
     </g>
    </g>
    <g id="xtick_18">
     <g id="line2d_58">
      <path d="M 473.756667 536.424 
L 473.756667 443.088 
" clip-path="url(#p72687e4ea6)" style="fill: none; stroke: #b0b0b0; stroke-width: 0.8; stroke-linecap: square"/>
     </g>
     <g id="line2d_59">
      <g>
       <use xlink:href="#m135e3afb32" x="473.756667" y="536.424" style="stroke: #000000; stroke-width: 0.8"/>
      </g>
     </g>
     <g id="text_34">
      <!-- 10 -->
      <g transform="translate(467.589479 551.41775)scale(0.1 -0.1)">
       <use xlink:href="#MicrosoftYaHei-Bold-31"/>
       <use xlink:href="#MicrosoftYaHei-Bold-30" x="61.669922"/>
      </g>
     </g>
    </g>
    <g id="xtick_19">
     <g id="line2d_60">
      <path d="M 686.415 536.424 
L 686.415 443.088 
" clip-path="url(#p72687e4ea6)" style="fill: none; stroke: #b0b0b0; stroke-width: 0.8; stroke-linecap: square"/>
     </g>
     <g id="line2d_61">
      <g>
       <use xlink:href="#m135e3afb32" x="686.415" y="536.424" style="stroke: #000000; stroke-width: 0.8"/>
      </g>
     </g>
     <g id="text_35">
      <!-- 15 -->
      <g transform="translate(680.247813 551.41775)scale(0.1 -0.1)">
       <use xlink:href="#MicrosoftYaHei-Bold-31"/>
       <use xlink:href="#MicrosoftYaHei-Bold-35" x="61.669922"/>
      </g>
     </g>
    </g>
    <g id="xtick_20">
     <g id="line2d_62">
      <path d="M 899.073333 536.424 
L 899.073333 443.088 
" clip-path="url(#p72687e4ea6)" style="fill: none; stroke: #b0b0b0; stroke-width: 0.8; stroke-linecap: square"/>
     </g>
     <g id="line2d_63">
      <g>
       <use xlink:href="#m135e3afb32" x="899.073333" y="536.424" style="stroke: #000000; stroke-width: 0.8"/>
      </g>
     </g>
     <g id="text_36">
      <!-- 20 -->
      <g transform="translate(892.906146 551.41775)scale(0.1 -0.1)">
       <use xlink:href="#MicrosoftYaHei-Bold-32"/>
       <use xlink:href="#MicrosoftYaHei-Bold-30" x="61.669922"/>
      </g>
     </g>
    </g>
   </g>
   <g id="matplotlib.axis_8">
    <g id="ytick_11">
     <g id="line2d_64">
      <path d="M 48.44 532.181455 
L 1069.2 532.181455 
" clip-path="url(#p72687e4ea6)" style="fill: none; stroke: #b0b0b0; stroke-width: 0.8; stroke-linecap: square"/>
     </g>
     <g id="line2d_65">
      <g>
       <use xlink:href="#m42e52aa2c2" x="48.44" y="532.181455" style="stroke: #000000; stroke-width: 0.8"/>
      </g>
     </g>
     <g id="text_37">
      <!-- 0.0 -->
      <g transform="translate(26.249375 536.17833)scale(0.1 -0.1)">
       <defs>
        <path id="MicrosoftYaHei-Bold-2e" d="M 313 453 
Q 313 688 491 838 
Q 669 988 916 988 
Q 1166 988 1337 834 
Q 1509 681 1509 453 
Q 1509 213 1337 64 
Q 1166 -84 903 -84 
Q 659 -84 486 69 
Q 313 222 313 453 
z
" transform="scale(0.015625)"/>
       </defs>
       <use xlink:href="#MicrosoftYaHei-Bold-30"/>
       <use xlink:href="#MicrosoftYaHei-Bold-2e" x="61.669922"/>
       <use xlink:href="#MicrosoftYaHei-Bold-30" x="90.234375"/>
      </g>
     </g>
    </g>
    <g id="ytick_12">
     <g id="line2d_66">
      <path d="M 48.44 489.756 
L 1069.2 489.756 
" clip-path="url(#p72687e4ea6)" style="fill: none; stroke: #b0b0b0; stroke-width: 0.8; stroke-linecap: square"/>
     </g>
     <g id="line2d_67">
      <g>
       <use xlink:href="#m42e52aa2c2" x="48.44" y="489.756" style="stroke: #000000; stroke-width: 0.8"/>
      </g>
     </g>
     <g id="text_38">
      <!-- 0.5 -->
      <g transform="translate(26.249375 493.752875)scale(0.1 -0.1)">
       <use xlink:href="#MicrosoftYaHei-Bold-30"/>
       <use xlink:href="#MicrosoftYaHei-Bold-2e" x="61.669922"/>
       <use xlink:href="#MicrosoftYaHei-Bold-35" x="90.234375"/>
      </g>
     </g>
    </g>
    <g id="ytick_13">
     <g id="line2d_68">
      <path d="M 48.44 447.330545 
L 1069.2 447.330545 
" clip-path="url(#p72687e4ea6)" style="fill: none; stroke: #b0b0b0; stroke-width: 0.8; stroke-linecap: square"/>
     </g>
     <g id="line2d_69">
      <g>
       <use xlink:href="#m42e52aa2c2" x="48.44" y="447.330545" style="stroke: #000000; stroke-width: 0.8"/>
      </g>
     </g>
     <g id="text_39">
      <!-- 1.0 -->
      <g transform="translate(26.249375 451.32742)scale(0.1 -0.1)">
       <use xlink:href="#MicrosoftYaHei-Bold-31"/>
       <use xlink:href="#MicrosoftYaHei-Bold-2e" x="61.669922"/>
       <use xlink:href="#MicrosoftYaHei-Bold-30" x="90.234375"/>
      </g>
     </g>
    </g>
    <g id="text_40">
     <!-- 队列长度 -->
     <g transform="translate(19.763438 509.756)rotate(-90)scale(0.1 -0.1)">
      <use xlink:href="#MicrosoftYaHei-961f"/>
      <use xlink:href="#MicrosoftYaHei-5217" x="100"/>
      <use xlink:href="#MicrosoftYaHei-957f" x="200"/>
      <use xlink:href="#MicrosoftYaHei-5ea6" x="300"/>
     </g>
    </g>
   </g>
   <g id="line2d_70">
    <path d="M 48.44 532.181455 
L 204.389444 532.181455 
L 207.93375 447.330545 
L 211.478056 532.181455 
L 1065.655694 532.181455 
L 1065.655694 532.181455 
" clip-path="url(#p72687e4ea6)" style="fill: none; stroke: #cd5c5c; stroke-width: 1.5; stroke-linecap: square"/>
   </g>
   <g id="patch_18">
    <path d="M 48.44 536.424 
L 48.44 443.088 
" style="fill: none; stroke: #000000; stroke-width: 0.8; stroke-linejoin: miter; stroke-linecap: square"/>
   </g>
   <g id="patch_19">
    <path d="M 1069.2 536.424 
L 1069.2 443.088 
" style="fill: none; stroke: #000000; stroke-width: 0.8; stroke-linejoin: miter; stroke-linecap: square"/>
   </g>
   <g id="patch_20">
    <path d="M 48.44 536.424 
L 1069.2 536.424 
" style="fill: none; stroke: #000000; stroke-width: 0.8; stroke-linejoin: miter; stroke-linecap: square"/>
   </g>
   <g id="patch_21">
    <path d="M 48.44 443.088 
L 1069.2 443.088 
" style="fill: none; stroke: #000000; stroke-width: 0.8; stroke-linejoin: miter; stroke-linecap: square"/>
   </g>
   <g id="text_41">
    <!-- 起飞队列长度 -->
    <g transform="translate(522.82 437.088)scale(0.12 -0.12)">
     <defs>
      <path id="MicrosoftYaHei-8d77" d="M 106 -266 
Q 581 566 619 2241 
L 1081 2216 
Q 1059 1606 991 1091 
Q 1225 588 1613 288 
L 1613 2616 
L 138 2616 
L 138 3072 
L 1419 3072 
L 1419 3966 
L 356 3966 
L 356 4422 
L 1419 4422 
L 1419 5309 
L 1906 5309 
L 1906 4422 
L 2956 4422 
L 2956 3966 
L 1906 3966 
L 1906 3072 
L 3081 3072 
L 3081 2616 
L 2081 2616 
L 2081 1647 
L 3031 1647 
L 3031 1197 
L 2081 1197 
L 2081 16 
Q 2516 -159 3081 -166 
Q 4613 -178 6313 -141 
Q 6200 -422 6138 -634 
Q 4169 -641 2950 -616 
Q 1438 -588 884 478 
Q 709 -341 381 -853 
Q 256 -559 106 -266 
z
M 3850 1347 
Q 3850 1009 4188 1009 
L 5263 1009 
Q 5613 1009 5656 1316 
Q 5694 1597 5725 2153 
Q 5919 2066 6200 1972 
Q 6144 1366 6088 1084 
Q 5994 559 5325 559 
L 4069 559 
Q 3375 559 3375 1272 
L 3375 3303 
L 5325 3303 
L 5325 4491 
L 3256 4491 
L 3256 4941 
L 5800 4941 
L 5800 2641 
L 5325 2641 
L 5325 2853 
L 3850 2853 
L 3850 1347 
z
" transform="scale(0.015625)"/>
      <path id="MicrosoftYaHei-98de" d="M 5788 1109 
Q 6100 978 6313 916 
Q 6213 303 6038 -166 
Q 5838 -653 5381 -653 
Q 4806 -653 4363 -434 
Q 3263 172 3213 2478 
Q 3200 3266 3206 4416 
L 100 4416 
L 100 4878 
L 3750 4878 
Q 3725 4047 3725 3219 
Q 4850 4091 5381 4628 
L 5831 4172 
Q 5338 3822 4050 2906 
Q 5059 2447 5981 1972 
L 5681 1472 
Q 4794 2016 3728 2566 
Q 3731 284 4856 -66 
Q 5456 -272 5600 172 
Q 5706 528 5788 1109 
z
" transform="scale(0.015625)"/>
     </defs>
     <use xlink:href="#MicrosoftYaHei-8d77"/>
     <use xlink:href="#MicrosoftYaHei-98de" x="100"/>
     <use xlink:href="#MicrosoftYaHei-961f" x="200"/>
     <use xlink:href="#MicrosoftYaHei-5217" x="300"/>
     <use xlink:href="#MicrosoftYaHei-957f" x="400"/>
     <use xlink:href="#MicrosoftYaHei-5ea6" x="500"/>
    </g>
   </g>
  </g>
  <g id="axes_5">
   <g id="patch_22">
    <path d="M 48.44 675.16 
L 1069.2 675.16 
L 1069.2 581.824 
L 48.44 581.824 
z
" style="fill: #ffffff"/>
   </g>
   <g id="matplotlib.axis_9">
    <g id="xtick_21">
     <g id="line2d_71">
      <path d="M 48.44 675.16 
L 48.44 581.824 
" clip-path="url(#p227221109f)" style="fill: none; stroke: #b0b0b0; stroke-width: 0.8; stroke-linecap: square"/>
     </g>
     <g id="line2d_72">
      <g>
       <use xlink:href="#m135e3afb32" x="48.44" y="675.16" style="stroke: #000000; stroke-width: 0.8"/>
      </g>
     </g>
     <g id="text_42">
      <!-- 0 -->
      <g transform="translate(45.356406 690.15375)scale(0.1 -0.1)">
       <use xlink:href="#MicrosoftYaHei-Bold-30"/>
      </g>
     </g>
    </g>
    <g id="xtick_22">
     <g id="line2d_73">
      <path d="M 261.098333 675.16 
L 261.098333 581.824 
" clip-path="url(#p227221109f)" style="fill: none; stroke: #b0b0b0; stroke-width: 0.8; stroke-linecap: square"/>
     </g>
     <g id="line2d_74">
      <g>
       <use xlink:href="#m135e3afb32" x="261.098333" y="675.16" style="stroke: #000000; stroke-width: 0.8"/>
      </g>
     </g>
     <g id="text_43">
      <!-- 5 -->
      <g transform="translate(258.01474 690.15375)scale(0.1 -0.1)">
       <use xlink:href="#MicrosoftYaHei-Bold-35"/>
      </g>
     </g>
    </g>
    <g id="xtick_23">
     <g id="line2d_75">
      <path d="M 473.756667 675.16 
L 473.756667 581.824 
" clip-path="url(#p227221109f)" style="fill: none; stroke: #b0b0b0; stroke-width: 0.8; stroke-linecap: square"/>
     </g>
     <g id="line2d_76">
      <g>
       <use xlink:href="#m135e3afb32" x="473.756667" y="675.16" style="stroke: #000000; stroke-width: 0.8"/>
      </g>
     </g>
     <g id="text_44">
      <!-- 10 -->
      <g transform="translate(467.589479 690.15375)scale(0.1 -0.1)">
       <use xlink:href="#MicrosoftYaHei-Bold-31"/>
       <use xlink:href="#MicrosoftYaHei-Bold-30" x="61.669922"/>
      </g>
     </g>
    </g>
    <g id="xtick_24">
     <g id="line2d_77">
      <path d="M 686.415 675.16 
L 686.415 581.824 
" clip-path="url(#p227221109f)" style="fill: none; stroke: #b0b0b0; stroke-width: 0.8; stroke-linecap: square"/>
     </g>
     <g id="line2d_78">
      <g>
       <use xlink:href="#m135e3afb32" x="686.415" y="675.16" style="stroke: #000000; stroke-width: 0.8"/>
      </g>
     </g>
     <g id="text_45">
      <!-- 15 -->
      <g transform="translate(680.247813 690.15375)scale(0.1 -0.1)">
       <use xlink:href="#MicrosoftYaHei-Bold-31"/>
       <use xlink:href="#MicrosoftYaHei-Bold-35" x="61.669922"/>
      </g>
     </g>
    </g>
    <g id="xtick_25">
     <g id="line2d_79">
      <path d="M 899.073333 675.16 
L 899.073333 581.824 
" clip-path="url(#p227221109f)" style="fill: none; stroke: #b0b0b0; stroke-width: 0.8; stroke-linecap: square"/>
     </g>
     <g id="line2d_80">
      <g>
       <use xlink:href="#m135e3afb32" x="899.073333" y="675.16" style="stroke: #000000; stroke-width: 0.8"/>
      </g>
     </g>
     <g id="text_46">
      <!-- 20 -->
      <g transform="translate(892.906146 690.15375)scale(0.1 -0.1)">
       <use xlink:href="#MicrosoftYaHei-Bold-32"/>
       <use xlink:href="#MicrosoftYaHei-Bold-30" x="61.669922"/>
      </g>
     </g>
    </g>
    <g id="text_47">
     <!-- 时间（小时） -->
     <g transform="translate(528.82 704.633437)scale(0.1 -0.1)">
      <defs>
       <path id="MicrosoftYaHei-65f6" d="M 344 4728 
L 2500 4728 
L 2500 -366 
L 2006 -366 
L 2006 153 
L 838 153 
L 838 -441 
L 344 -441 
L 344 4728 
z
M 2706 3941 
L 4925 3941 
L 4925 5322 
L 5425 5322 
L 5425 3941 
L 6313 3941 
L 6313 3478 
L 5425 3478 
L 5425 116 
Q 5425 -722 4625 -722 
Q 4263 -722 3563 -703 
Q 3531 -478 3463 -178 
Q 4119 -228 4488 -228 
Q 4925 -228 4925 216 
L 4925 3478 
L 2706 3478 
L 2706 3941 
z
M 838 616 
L 2006 616 
L 2006 2234 
L 838 2234 
L 838 616 
z
M 2006 4266 
L 838 4266 
L 838 2684 
L 2006 2684 
L 2006 4266 
z
M 3406 2878 
Q 3906 1966 4163 1422 
Q 4000 1347 3663 1172 
Q 3419 1766 2963 2653 
L 3406 2878 
z
" transform="scale(0.015625)"/>
       <path id="MicrosoftYaHei-95f4" d="M 1863 3647 
L 4513 3647 
L 4513 553 
L 2313 553 
L 2313 166 
L 1863 166 
L 1863 3647 
z
M 2388 4453 
L 2388 4922 
L 6013 4922 
L 6013 -28 
Q 6013 -816 5119 -816 
Q 4756 -816 4169 -803 
Q 4144 -616 4069 -297 
Q 4588 -334 5056 -334 
Q 5525 -334 5525 122 
L 5525 4453 
L 2388 4453 
z
M 419 4084 
L 906 4084 
L 906 -816 
L 419 -816 
L 419 4084 
z
M 2313 997 
L 4063 997 
L 4063 1884 
L 2313 1884 
L 2313 997 
z
M 4063 3203 
L 2313 3203 
L 2313 2328 
L 4063 2328 
L 4063 3203 
z
M 744 5003 
L 1100 5322 
Q 1575 4872 1981 4447 
L 1575 4091 
Q 1194 4541 744 5003 
z
" transform="scale(0.015625)"/>
       <path id="MicrosoftYaHei-ff08" d="M 5288 -1100 
Q 4172 119 4172 1850 
Q 4172 3603 5288 4838 
L 5825 4838 
Q 4716 3572 4716 1856 
Q 4716 166 5819 -1100 
L 5288 -1100 
z
" transform="scale(0.015625)"/>
       <path id="MicrosoftYaHei-5c0f" d="M 1513 3878 
L 2025 3697 
Q 1425 1984 625 478 
Q 413 609 113 759 
Q 831 1972 1513 3878 
z
M 4300 3641 
L 4769 3866 
Q 5563 2422 6319 828 
L 5750 559 
Q 4988 2328 4300 3641 
z
M 3000 5247 
L 3556 5247 
L 3556 66 
Q 3556 -747 2675 -747 
Q 2325 -747 1744 -728 
Q 1700 -453 1638 -141 
Q 2238 -197 2556 -197 
Q 3000 -197 3000 203 
L 3000 5247 
z
" transform="scale(0.015625)"/>
       <path id="MicrosoftYaHei-ff09" d="M 1113 -1100 
L 575 -1100 
Q 1684 163 1684 1888 
Q 1684 3581 581 4838 
L 1113 4838 
Q 2222 3628 2222 1888 
Q 2222 128 1113 -1100 
z
" transform="scale(0.015625)"/>
      </defs>
      <use xlink:href="#MicrosoftYaHei-65f6"/>
      <use xlink:href="#MicrosoftYaHei-95f4" x="100"/>
      <use xlink:href="#MicrosoftYaHei-ff08" x="200"/>
      <use xlink:href="#MicrosoftYaHei-5c0f" x="300"/>
      <use xlink:href="#MicrosoftYaHei-65f6" x="400"/>
      <use xlink:href="#MicrosoftYaHei-ff09" x="500"/>
     </g>
    </g>
   </g>
   <g id="matplotlib.axis_10">
    <g id="ytick_14">
     <g id="line2d_81">
      <path d="M 48.44 670.917455 
L 1069.2 670.917455 
" clip-path="url(#p227221109f)" style="fill: none; stroke: #b0b0b0; stroke-width: 0.8; stroke-linecap: square"/>
     </g>
     <g id="line2d_82">
      <g>
       <use xlink:href="#m42e52aa2c2" x="48.44" y="670.917455" style="stroke: #000000; stroke-width: 0.8"/>
      </g>
     </g>
     <g id="text_48">
      <!-- 0 -->
      <g transform="translate(35.272813 674.91433)scale(0.1 -0.1)">
       <use xlink:href="#MicrosoftYaHei-Bold-30"/>
      </g>
     </g>
    </g>
    <g id="ytick_15">
     <g id="line2d_83">
      <path d="M 48.44 628.492 
L 1069.2 628.492 
" clip-path="url(#p227221109f)" style="fill: none; stroke: #b0b0b0; stroke-width: 0.8; stroke-linecap: square"/>
     </g>
     <g id="line2d_84">
      <g>
       <use xlink:href="#m42e52aa2c2" x="48.44" y="628.492" style="stroke: #000000; stroke-width: 0.8"/>
      </g>
     </g>
     <g id="text_49">
      <!-- 2 -->
      <g transform="translate(35.272813 632.488875)scale(0.1 -0.1)">
       <use xlink:href="#MicrosoftYaHei-Bold-32"/>
      </g>
     </g>
    </g>
    <g id="ytick_16">
     <g id="line2d_85">
      <path d="M 48.44 586.066545 
L 1069.2 586.066545 
" clip-path="url(#p227221109f)" style="fill: none; stroke: #b0b0b0; stroke-width: 0.8; stroke-linecap: square"/>
     </g>
     <g id="line2d_86">
      <g>
       <use xlink:href="#m42e52aa2c2" x="48.44" y="586.066545" style="stroke: #000000; stroke-width: 0.8"/>
      </g>
     </g>
     <g id="text_50">
      <!-- 4 -->
      <g transform="translate(35.272813 590.06342)scale(0.1 -0.1)">
       <use xlink:href="#MicrosoftYaHei-Bold-34"/>
      </g>
     </g>
    </g>
    <g id="text_51">
     <!-- 占用数量 -->
     <g transform="translate(28.786875 648.492)rotate(-90)scale(0.1 -0.1)">
      <use xlink:href="#MicrosoftYaHei-5360"/>
      <use xlink:href="#MicrosoftYaHei-7528" x="100"/>
      <use xlink:href="#MicrosoftYaHei-6570" x="200"/>
      <use xlink:href="#MicrosoftYaHei-91cf" x="300"/>
     </g>
    </g>
   </g>
   <g id="line2d_87">
    <path d="M 48.44 670.917455 
L 137.047639 670.917455 
L 140.591944 628.492 
L 144.13625 649.704727 
L 147.680556 649.704727 
L 151.224861 607.279273 
L 154.769167 649.704727 
L 158.313472 607.279273 
L 161.857778 670.917455 
L 165.402083 628.492 
L 172.490694 628.492 
L 176.035 649.704727 
L 179.579306 649.704727 
L 183.123611 628.492 
L 186.667917 628.492 
L 190.212222 649.704727 
L 193.756528 628.492 
L 204.389444 628.492 
L 207.93375 649.704727 
L 211.478056 649.704727 
L 215.022361 628.492 
L 218.566667 628.492 
L 222.110972 649.704727 
L 225.655278 628.492 
L 232.743889 628.492 
L 236.288194 649.704727 
L 239.8325 607.279273 
L 243.376806 649.704727 
L 246.921111 649.704727 
L 250.465417 628.492 
L 254.009722 628.492 
L 257.554028 649.704727 
L 261.098333 607.279273 
L 264.642639 628.492 
L 268.186944 628.492 
L 271.73125 649.704727 
L 275.275556 628.492 
L 278.819861 670.917455 
L 282.364167 607.279273 
L 289.452778 649.704727 
L 292.997083 628.492 
L 296.541389 628.492 
L 300.085694 649.704727 
L 307.174306 607.279273 
L 310.718611 649.704727 
L 314.262917 649.704727 
L 317.807222 628.492 
L 328.440139 628.492 
L 331.984444 649.704727 
L 339.073056 649.704727 
L 342.617361 628.492 
L 346.161667 628.492 
L 349.705972 607.279273 
L 353.250278 670.917455 
L 356.794583 607.279273 
L 360.338889 649.704727 
L 363.883194 649.704727 
L 367.4275 628.492 
L 370.971806 649.704727 
L 374.516111 628.492 
L 378.060417 628.492 
L 381.604722 607.279273 
L 388.693333 649.704727 
L 392.237639 607.279273 
L 402.870556 670.917455 
L 406.414861 607.279273 
L 409.959167 607.279273 
L 413.503472 670.917455 
L 417.047778 607.279273 
L 420.592083 670.917455 
L 424.136389 628.492 
L 427.680694 649.704727 
L 431.225 607.279273 
L 434.769306 649.704727 
L 438.313611 586.066545 
L 441.857917 670.917455 
L 445.402222 649.704727 
L 448.946528 607.279273 
L 452.490833 649.704727 
L 456.035139 649.704727 
L 459.579444 628.492 
L 466.668056 628.492 
L 470.212361 649.704727 
L 473.756667 628.492 
L 480.845278 670.917455 
L 484.389583 607.279273 
L 487.933889 628.492 
L 491.478194 670.917455 
L 495.0225 607.279273 
L 498.566806 649.704727 
L 502.111111 628.492 
L 505.655417 628.492 
L 509.199722 649.704727 
L 512.744028 628.492 
L 516.288333 649.704727 
L 519.832639 607.279273 
L 523.376944 649.704727 
L 526.92125 607.279273 
L 530.465556 649.704727 
L 534.009861 649.704727 
L 537.554167 607.279273 
L 541.098472 649.704727 
L 548.187083 649.704727 
L 551.731389 607.279273 
L 558.82 649.704727 
L 562.364306 649.704727 
L 565.908611 628.492 
L 569.452917 670.917455 
L 572.997222 607.279273 
L 576.541528 628.492 
L 580.085833 670.917455 
L 583.630139 628.492 
L 587.174444 649.704727 
L 590.71875 607.279273 
L 594.263056 628.492 
L 601.351667 628.492 
L 604.895972 649.704727 
L 608.440278 628.492 
L 611.984583 649.704727 
L 619.073194 607.279273 
L 622.6175 649.704727 
L 626.161806 607.279273 
L 629.706111 670.917455 
L 633.250417 628.492 
L 636.794722 649.704727 
L 640.339028 586.066545 
L 643.883333 628.492 
L 647.427639 607.279273 
L 654.51625 649.704727 
L 658.060556 649.704727 
L 661.604861 607.279273 
L 665.149167 649.704727 
L 668.693472 649.704727 
L 672.237778 670.917455 
L 675.782083 607.279273 
L 682.870694 649.704727 
L 686.415 607.279273 
L 693.503611 649.704727 
L 697.047917 628.492 
L 700.592222 649.704727 
L 704.136528 628.492 
L 707.680833 628.492 
L 711.225139 649.704727 
L 714.769444 607.279273 
L 718.31375 649.704727 
L 725.402361 649.704727 
L 732.490972 607.279273 
L 736.035278 628.492 
L 739.579583 670.917455 
L 750.2125 607.279273 
L 753.756806 649.704727 
L 757.301111 670.917455 
L 760.845417 607.279273 
L 767.934028 649.704727 
L 771.478333 628.492 
L 775.022639 628.492 
L 778.566944 586.066545 
L 782.11125 670.917455 
L 785.655556 607.279273 
L 789.199861 649.704727 
L 792.744167 628.492 
L 796.288472 628.492 
L 799.832778 649.704727 
L 803.377083 607.279273 
L 806.921389 670.917455 
L 810.465694 628.492 
L 814.01 649.704727 
L 817.554306 628.492 
L 821.098611 649.704727 
L 824.642917 586.066545 
L 828.187222 670.917455 
L 838.820139 607.279273 
L 842.364444 649.704727 
L 845.90875 670.917455 
L 849.453056 607.279273 
L 852.997361 649.704727 
L 856.541667 649.704727 
L 860.085972 628.492 
L 863.630278 670.917455 
L 867.174583 607.279273 
L 870.718889 649.704727 
L 874.263194 607.279273 
L 877.8075 649.704727 
L 881.351806 628.492 
L 884.896111 628.492 
L 888.440417 649.704727 
L 891.984722 628.492 
L 895.529028 628.492 
L 899.073333 649.704727 
L 902.617639 649.704727 
L 906.161944 670.917455 
L 909.70625 607.279273 
L 913.250556 607.279273 
L 916.794861 628.492 
L 920.339167 670.917455 
L 923.883472 628.492 
L 927.427778 607.279273 
L 930.972083 607.279273 
L 934.516389 670.917455 
L 938.060694 649.704727 
L 941.605 607.279273 
L 945.149306 649.704727 
L 948.693611 628.492 
L 952.237917 670.917455 
L 955.782222 607.279273 
L 959.326528 628.492 
L 962.870833 628.492 
L 966.415139 607.279273 
L 969.959444 607.279273 
L 973.50375 628.492 
L 977.048056 628.492 
L 980.592361 649.704727 
L 984.136667 607.279273 
L 987.680972 649.704727 
L 991.225278 628.492 
L 994.769583 670.917455 
L 998.313889 607.279273 
L 1001.858194 628.492 
L 1008.946806 628.492 
L 1012.491111 607.279273 
L 1019.579722 649.704727 
L 1023.124028 628.492 
L 1037.30125 628.492 
L 1040.845556 670.917455 
L 1044.389861 628.492 
L 1051.478472 628.492 
L 1055.022778 670.917455 
L 1058.567083 607.279273 
L 1062.111389 628.492 
L 1065.655694 628.492 
L 1065.655694 628.492 
" clip-path="url(#p227221109f)" style="fill: none; stroke: #4169e1; stroke-width: 1.5; stroke-linecap: square"/>
   </g>
   <g id="patch_23">
    <path d="M 48.44 675.16 
L 48.44 581.824 
" style="fill: none; stroke: #000000; stroke-width: 0.8; stroke-linejoin: miter; stroke-linecap: square"/>
   </g>
   <g id="patch_24">
    <path d="M 1069.2 675.16 
L 1069.2 581.824 
" style="fill: none; stroke: #000000; stroke-width: 0.8; stroke-linejoin: miter; stroke-linecap: square"/>
   </g>
   <g id="patch_25">
    <path d="M 48.44 675.16 
L 1069.2 675.16 
" style="fill: none; stroke: #000000; stroke-width: 0.8; stroke-linejoin: miter; stroke-linecap: square"/>
   </g>
   <g id="patch_26">
    <path d="M 48.44 581.824 
L 1069.2 581.824 
" style="fill: none; stroke: #000000; stroke-width: 0.8; stroke-linejoin: miter; stroke-linecap: square"/>
   </g>
   <g id="text_52">
    <!-- 起飞空域走廊占用情况 -->
    <g transform="translate(498.82 575.824)scale(0.12 -0.12)">
     <use xlink:href="#MicrosoftYaHei-8d77"/>
     <use xlink:href="#MicrosoftYaHei-98de" x="100"/>
     <use xlink:href="#MicrosoftYaHei-7a7a" x="200"/>
     <use xlink:href="#MicrosoftYaHei-57df" x="300"/>
     <use xlink:href="#MicrosoftYaHei-8d70" x="400"/>
     <use xlink:href="#MicrosoftYaHei-5eca" x="500"/>
     <use xlink:href="#MicrosoftYaHei-5360" x="600"/>
     <use xlink:href="#MicrosoftYaHei-7528" x="700"/>
     <use xlink:href="#MicrosoftYaHei-60c5" x="800"/>
     <use xlink:href="#MicrosoftYaHei-51b5" x="900"/>
    </g>
   </g>
  </g>
 </g>
 <defs>
  <clipPath id="p0d59ea2a9f">
   <rect x="48.44" y="26.88" width="1020.76" height="93.336"/>
  </clipPath>
  <clipPath id="p03a67c3d44">
   <rect x="48.44" y="165.616" width="1020.76" height="93.336"/>
  </clipPath>
  <clipPath id="pc0c84dba66">
   <rect x="48.44" y="304.352" width="1020.76" height="93.336"/>
  </clipPath>
  <clipPath id="p72687e4ea6">
   <rect x="48.44" y="443.088" width="1020.76" height="93.336"/>
  </clipPath>
  <clipPath id="p227221109f">
   <rect x="48.44" y="581.824" width="1020.76" height="93.336"/>
  </clipPath>
 </defs>
</svg>
