<?xml version="1.0" encoding="utf-8" standalone="no"?>
<!DOCTYPE svg PUBLIC "-//W3C//DTD SVG 1.1//EN"
  "http://www.w3.org/Graphics/SVG/1.1/DTD/svg11.dtd">
<svg xmlns:xlink="http://www.w3.org/1999/xlink" width="864pt" height="432pt" viewBox="0 0 864 432" xmlns="http://www.w3.org/2000/svg" version="1.1">
 <metadata>
  <rdf:RDF xmlns:dc="http://purl.org/dc/elements/1.1/" xmlns:cc="http://creativecommons.org/ns#" xmlns:rdf="http://www.w3.org/1999/02/22-rdf-syntax-ns#">
   <cc:Work>
    <dc:type rdf:resource="http://purl.org/dc/dcmitype/StillImage"/>
    <dc:date>2025-07-21T09:56:10.587616</dc:date>
    <dc:format>image/svg+xml</dc:format>
    <dc:creator>
     <cc:Agent>
      <dc:title>Matplotlib v3.5.1, https://matplotlib.org/</dc:title>
     </cc:Agent>
    </dc:creator>
   </cc:Work>
  </rdf:RDF>
 </metadata>
 <defs>
  <style type="text/css">*{stroke-linejoin: round; stroke-linecap: butt}</style>
 </defs>
 <g id="figure_1">
  <g id="patch_1">
   <path d="M 0 432 
L 864 432 
L 864 0 
L 0 0 
z
" style="fill: #ffffff"/>
  </g>
  <g id="axes_1">
   <g id="patch_2">
    <path d="M 48.53 184.32 
L 853.2 184.32 
L 853.2 26.88 
L 48.53 26.88 
z
" style="fill: #ffffff"/>
   </g>
   <g id="matplotlib.axis_1">
    <g id="xtick_1">
     <g id="line2d_1">
      <path d="M 48.53 184.32 
L 48.53 26.88 
" clip-path="url(#p043644d8a1)" style="fill: none; stroke: #b0b0b0; stroke-width: 0.8; stroke-linecap: square"/>
     </g>
     <g id="line2d_2">
      <defs>
       <path id="mc3c1f32637" d="M 0 0 
L 0 3.5 
" style="stroke: #000000; stroke-width: 0.8"/>
      </defs>
      <g>
       <use xlink:href="#mc3c1f32637" x="48.53" y="184.32" style="stroke: #000000; stroke-width: 0.8"/>
      </g>
     </g>
     <g id="text_1">
      <!-- 0 -->
      <g transform="translate(45.446406 199.31375)scale(0.1 -0.1)">
       <defs>
        <path id="MicrosoftYaHei-Bold-30" d="M 244 2341 
Q 244 3597 706 4259 
Q 1169 4922 2044 4922 
Q 3713 4922 3713 2453 
Q 3713 1238 3259 577 
Q 2806 -84 1950 -84 
Q 244 -84 244 2341 
z
M 1266 2366 
Q 1266 691 1981 691 
Q 2684 691 2684 2416 
Q 2684 4147 2000 4147 
Q 1266 4147 1266 2366 
z
" transform="scale(0.015625)"/>
       </defs>
       <use xlink:href="#MicrosoftYaHei-Bold-30"/>
      </g>
     </g>
    </g>
    <g id="xtick_2">
     <g id="line2d_3">
      <path d="M 216.169583 184.32 
L 216.169583 26.88 
" clip-path="url(#p043644d8a1)" style="fill: none; stroke: #b0b0b0; stroke-width: 0.8; stroke-linecap: square"/>
     </g>
     <g id="line2d_4">
      <g>
       <use xlink:href="#mc3c1f32637" x="216.169583" y="184.32" style="stroke: #000000; stroke-width: 0.8"/>
      </g>
     </g>
     <g id="text_2">
      <!-- 5 -->
      <g transform="translate(213.08599 199.31375)scale(0.1 -0.1)">
       <defs>
        <path id="MicrosoftYaHei-Bold-35" d="M 541 125 
L 541 997 
Q 1044 691 1613 691 
Q 2041 691 2283 902 
Q 2525 1113 2525 1472 
Q 2525 2225 1494 2225 
Q 1113 2225 616 2169 
L 797 4841 
L 3359 4841 
L 3359 4009 
L 1613 4009 
L 1544 2991 
Q 1803 3013 2022 3013 
Q 2731 3013 3142 2625 
Q 3553 2238 3553 1575 
Q 3553 844 3056 380 
Q 2559 -84 1706 -84 
Q 1016 -84 541 125 
z
" transform="scale(0.015625)"/>
       </defs>
       <use xlink:href="#MicrosoftYaHei-Bold-35"/>
      </g>
     </g>
    </g>
    <g id="xtick_3">
     <g id="line2d_5">
      <path d="M 383.809167 184.32 
L 383.809167 26.88 
" clip-path="url(#p043644d8a1)" style="fill: none; stroke: #b0b0b0; stroke-width: 0.8; stroke-linecap: square"/>
     </g>
     <g id="line2d_6">
      <g>
       <use xlink:href="#mc3c1f32637" x="383.809167" y="184.32" style="stroke: #000000; stroke-width: 0.8"/>
      </g>
     </g>
     <g id="text_3">
      <!-- 10 -->
      <g transform="translate(377.641979 199.31375)scale(0.1 -0.1)">
       <defs>
        <path id="MicrosoftYaHei-Bold-31" d="M 2716 4947 
L 2716 0 
L 1700 0 
L 1700 3809 
Q 1513 3647 1188 3517 
Q 863 3388 591 3356 
L 591 4222 
Q 1447 4472 2072 4947 
L 2716 4947 
z
" transform="scale(0.015625)"/>
       </defs>
       <use xlink:href="#MicrosoftYaHei-Bold-31"/>
       <use xlink:href="#MicrosoftYaHei-Bold-30" x="61.669922"/>
      </g>
     </g>
    </g>
    <g id="xtick_4">
     <g id="line2d_7">
      <path d="M 551.44875 184.32 
L 551.44875 26.88 
" clip-path="url(#p043644d8a1)" style="fill: none; stroke: #b0b0b0; stroke-width: 0.8; stroke-linecap: square"/>
     </g>
     <g id="line2d_8">
      <g>
       <use xlink:href="#mc3c1f32637" x="551.44875" y="184.32" style="stroke: #000000; stroke-width: 0.8"/>
      </g>
     </g>
     <g id="text_4">
      <!-- 15 -->
      <g transform="translate(545.281563 199.31375)scale(0.1 -0.1)">
       <use xlink:href="#MicrosoftYaHei-Bold-31"/>
       <use xlink:href="#MicrosoftYaHei-Bold-35" x="61.669922"/>
      </g>
     </g>
    </g>
    <g id="xtick_5">
     <g id="line2d_9">
      <path d="M 719.088333 184.32 
L 719.088333 26.88 
" clip-path="url(#p043644d8a1)" style="fill: none; stroke: #b0b0b0; stroke-width: 0.8; stroke-linecap: square"/>
     </g>
     <g id="line2d_10">
      <g>
       <use xlink:href="#mc3c1f32637" x="719.088333" y="184.32" style="stroke: #000000; stroke-width: 0.8"/>
      </g>
     </g>
     <g id="text_5">
      <!-- 20 -->
      <g transform="translate(712.921146 199.31375)scale(0.1 -0.1)">
       <defs>
        <path id="MicrosoftYaHei-Bold-32" d="M 1500 841 
L 3553 841 
L 3553 0 
L 334 0 
L 334 359 
Q 334 738 473 1050 
Q 613 1363 856 1633 
Q 1100 1903 1613 2266 
Q 2081 2616 2268 2886 
Q 2456 3156 2456 3459 
Q 2456 4113 1744 4113 
Q 1119 4113 550 3613 
L 550 4513 
Q 1184 4922 1975 4922 
Q 2700 4922 3122 4551 
Q 3544 4181 3544 3531 
Q 3544 3169 3422 2876 
Q 3300 2584 3069 2328 
Q 2838 2072 2328 1713 
Q 1838 1363 1669 1172 
Q 1500 981 1500 841 
z
" transform="scale(0.015625)"/>
       </defs>
       <use xlink:href="#MicrosoftYaHei-Bold-32"/>
       <use xlink:href="#MicrosoftYaHei-Bold-30" x="61.669922"/>
      </g>
     </g>
    </g>
   </g>
   <g id="matplotlib.axis_2">
    <g id="ytick_1">
     <g id="line2d_11">
      <path d="M 48.53 177.163636 
L 853.2 177.163636 
" clip-path="url(#p043644d8a1)" style="fill: none; stroke: #b0b0b0; stroke-width: 0.8; stroke-linecap: square"/>
     </g>
     <g id="line2d_12">
      <defs>
       <path id="m70dec8a4f1" d="M 0 0 
L -3.5 0 
" style="stroke: #000000; stroke-width: 0.8"/>
      </defs>
      <g>
       <use xlink:href="#m70dec8a4f1" x="48.53" y="177.163636" style="stroke: #000000; stroke-width: 0.8"/>
      </g>
     </g>
     <g id="text_6">
      <!-- 0.0 -->
      <g transform="translate(26.339375 181.160511)scale(0.1 -0.1)">
       <defs>
        <path id="MicrosoftYaHei-Bold-2e" d="M 313 453 
Q 313 688 491 838 
Q 669 988 916 988 
Q 1166 988 1337 834 
Q 1509 681 1509 453 
Q 1509 213 1337 64 
Q 1166 -84 903 -84 
Q 659 -84 486 69 
Q 313 222 313 453 
z
" transform="scale(0.015625)"/>
       </defs>
       <use xlink:href="#MicrosoftYaHei-Bold-30"/>
       <use xlink:href="#MicrosoftYaHei-Bold-2e" x="61.669922"/>
       <use xlink:href="#MicrosoftYaHei-Bold-30" x="90.234375"/>
      </g>
     </g>
    </g>
    <g id="ytick_2">
     <g id="line2d_13">
      <path d="M 48.53 153.309091 
L 853.2 153.309091 
" clip-path="url(#p043644d8a1)" style="fill: none; stroke: #b0b0b0; stroke-width: 0.8; stroke-linecap: square"/>
     </g>
     <g id="line2d_14">
      <g>
       <use xlink:href="#m70dec8a4f1" x="48.53" y="153.309091" style="stroke: #000000; stroke-width: 0.8"/>
      </g>
     </g>
     <g id="text_7">
      <!-- 0.5 -->
      <g transform="translate(26.339375 157.305966)scale(0.1 -0.1)">
       <use xlink:href="#MicrosoftYaHei-Bold-30"/>
       <use xlink:href="#MicrosoftYaHei-Bold-2e" x="61.669922"/>
       <use xlink:href="#MicrosoftYaHei-Bold-35" x="90.234375"/>
      </g>
     </g>
    </g>
    <g id="ytick_3">
     <g id="line2d_15">
      <path d="M 48.53 129.454545 
L 853.2 129.454545 
" clip-path="url(#p043644d8a1)" style="fill: none; stroke: #b0b0b0; stroke-width: 0.8; stroke-linecap: square"/>
     </g>
     <g id="line2d_16">
      <g>
       <use xlink:href="#m70dec8a4f1" x="48.53" y="129.454545" style="stroke: #000000; stroke-width: 0.8"/>
      </g>
     </g>
     <g id="text_8">
      <!-- 1.0 -->
      <g transform="translate(26.339375 133.45142)scale(0.1 -0.1)">
       <use xlink:href="#MicrosoftYaHei-Bold-31"/>
       <use xlink:href="#MicrosoftYaHei-Bold-2e" x="61.669922"/>
       <use xlink:href="#MicrosoftYaHei-Bold-30" x="90.234375"/>
      </g>
     </g>
    </g>
    <g id="ytick_4">
     <g id="line2d_17">
      <path d="M 48.53 105.6 
L 853.2 105.6 
" clip-path="url(#p043644d8a1)" style="fill: none; stroke: #b0b0b0; stroke-width: 0.8; stroke-linecap: square"/>
     </g>
     <g id="line2d_18">
      <g>
       <use xlink:href="#m70dec8a4f1" x="48.53" y="105.6" style="stroke: #000000; stroke-width: 0.8"/>
      </g>
     </g>
     <g id="text_9">
      <!-- 1.5 -->
      <g transform="translate(26.339375 109.596875)scale(0.1 -0.1)">
       <use xlink:href="#MicrosoftYaHei-Bold-31"/>
       <use xlink:href="#MicrosoftYaHei-Bold-2e" x="61.669922"/>
       <use xlink:href="#MicrosoftYaHei-Bold-35" x="90.234375"/>
      </g>
     </g>
    </g>
    <g id="ytick_5">
     <g id="line2d_19">
      <path d="M 48.53 81.745455 
L 853.2 81.745455 
" clip-path="url(#p043644d8a1)" style="fill: none; stroke: #b0b0b0; stroke-width: 0.8; stroke-linecap: square"/>
     </g>
     <g id="line2d_20">
      <g>
       <use xlink:href="#m70dec8a4f1" x="48.53" y="81.745455" style="stroke: #000000; stroke-width: 0.8"/>
      </g>
     </g>
     <g id="text_10">
      <!-- 2.0 -->
      <g transform="translate(26.339375 85.74233)scale(0.1 -0.1)">
       <use xlink:href="#MicrosoftYaHei-Bold-32"/>
       <use xlink:href="#MicrosoftYaHei-Bold-2e" x="61.669922"/>
       <use xlink:href="#MicrosoftYaHei-Bold-30" x="90.234375"/>
      </g>
     </g>
    </g>
    <g id="ytick_6">
     <g id="line2d_21">
      <path d="M 48.53 57.890909 
L 853.2 57.890909 
" clip-path="url(#p043644d8a1)" style="fill: none; stroke: #b0b0b0; stroke-width: 0.8; stroke-linecap: square"/>
     </g>
     <g id="line2d_22">
      <g>
       <use xlink:href="#m70dec8a4f1" x="48.53" y="57.890909" style="stroke: #000000; stroke-width: 0.8"/>
      </g>
     </g>
     <g id="text_11">
      <!-- 2.5 -->
      <g transform="translate(26.339375 61.887784)scale(0.1 -0.1)">
       <use xlink:href="#MicrosoftYaHei-Bold-32"/>
       <use xlink:href="#MicrosoftYaHei-Bold-2e" x="61.669922"/>
       <use xlink:href="#MicrosoftYaHei-Bold-35" x="90.234375"/>
      </g>
     </g>
    </g>
    <g id="ytick_7">
     <g id="line2d_23">
      <path d="M 48.53 34.036364 
L 853.2 34.036364 
" clip-path="url(#p043644d8a1)" style="fill: none; stroke: #b0b0b0; stroke-width: 0.8; stroke-linecap: square"/>
     </g>
     <g id="line2d_24">
      <g>
       <use xlink:href="#m70dec8a4f1" x="48.53" y="34.036364" style="stroke: #000000; stroke-width: 0.8"/>
      </g>
     </g>
     <g id="text_12">
      <!-- 3.0 -->
      <g transform="translate(26.339375 38.033239)scale(0.1 -0.1)">
       <defs>
        <path id="MicrosoftYaHei-Bold-33" d="M 494 1053 
Q 978 691 1625 691 
Q 2034 691 2275 872 
Q 2516 1053 2516 1388 
Q 2516 1731 2230 1912 
Q 1944 2094 1428 2094 
L 997 2094 
L 997 2872 
L 1394 2872 
Q 2369 2872 2369 3528 
Q 2369 4147 1622 4147 
Q 1134 4147 675 3828 
L 675 4663 
Q 1175 4922 1853 4922 
Q 2541 4922 2969 4605 
Q 3397 4288 3397 3725 
Q 3397 2775 2434 2531 
L 2434 2516 
Q 2941 2459 3244 2145 
Q 3547 1831 3547 1381 
Q 3547 691 3042 303 
Q 2538 -84 1697 -84 
Q 950 -84 494 163 
L 494 1053 
z
" transform="scale(0.015625)"/>
       </defs>
       <use xlink:href="#MicrosoftYaHei-Bold-33"/>
       <use xlink:href="#MicrosoftYaHei-Bold-2e" x="61.669922"/>
       <use xlink:href="#MicrosoftYaHei-Bold-30" x="90.234375"/>
      </g>
     </g>
    </g>
    <g id="text_13">
     <!-- 队列长度 -->
     <g transform="translate(19.853438 125.6)rotate(-90)scale(0.1 -0.1)">
      <defs>
       <path id="MicrosoftYaHei-961f" d="M 2456 1728 
Q 2663 603 1831 466 
Q 1575 422 1163 459 
Q 1113 716 1019 997 
Q 1369 916 1625 947 
Q 2125 997 1931 1747 
Q 1819 2266 1338 2866 
Q 1688 3772 1931 4566 
L 913 4566 
L 913 -841 
L 419 -841 
L 419 5003 
L 2469 5003 
L 2469 4566 
Q 2144 3609 1869 2947 
Q 2381 2272 2456 1728 
z
M 3738 5253 
L 4250 5253 
Q 4244 4366 4228 3656 
Q 4584 794 6325 -228 
Q 6094 -478 5913 -709 
Q 4522 291 4056 2316 
Q 3703 409 2094 -822 
Q 1950 -647 1725 -422 
Q 3688 972 3725 3697 
Q 3738 4216 3738 5253 
z
" transform="scale(0.015625)"/>
       <path id="MicrosoftYaHei-5217" d="M 1163 1953 
L 1469 2303 
Q 1944 1913 2334 1538 
Q 2753 2263 2925 3109 
L 1519 3109 
Q 1028 1984 313 1084 
Q 175 1403 63 1584 
Q 1006 2853 1516 4553 
L 269 4553 
L 269 5003 
L 3775 5003 
L 3775 4553 
L 2031 4553 
Q 1884 4038 1703 3559 
L 3438 3559 
L 3438 3103 
Q 2925 541 744 -853 
Q 581 -666 356 -472 
Q 1425 219 2069 1125 
Q 1713 1475 1163 1953 
z
M 5419 5228 
L 5919 5228 
L 5919 66 
Q 5919 -728 5200 -734 
Q 4856 -741 4181 -728 
Q 4150 -441 4081 -166 
Q 4725 -222 5031 -222 
Q 5419 -222 5419 197 
L 5419 5228 
z
M 4519 709 
L 4038 709 
L 4038 4534 
L 4519 4534 
L 4519 709 
z
" transform="scale(0.015625)"/>
       <path id="MicrosoftYaHei-957f" d="M 169 2766 
L 1269 2766 
L 1269 5316 
L 1781 5316 
L 1781 2766 
L 6194 2766 
L 6194 2278 
L 3456 2278 
Q 4238 566 6325 -78 
Q 6113 -359 5944 -591 
Q 3697 266 2925 2278 
L 1781 2278 
L 1781 16 
Q 2494 303 3294 678 
Q 3294 384 3319 116 
Q 2575 -191 1894 -528 
Q 1644 -666 1431 -834 
L 1056 -353 
Q 1269 -184 1269 103 
L 1269 2278 
L 169 2278 
L 169 2766 
z
M 2156 3528 
Q 3706 4047 5138 5109 
L 5463 4703 
Q 4000 3634 2400 3066 
Q 2300 3278 2156 3528 
z
" transform="scale(0.015625)"/>
       <path id="MicrosoftYaHei-5ea6" d="M 1550 1216 
L 1550 1628 
L 5469 1628 
L 5469 1222 
Q 4903 613 4147 163 
Q 5050 -200 6263 -309 
L 6019 -797 
Q 4625 -603 3644 -109 
Q 2600 -619 1250 -866 
Q 1150 -666 994 -416 
Q 2231 -222 3166 166 
Q 2497 600 2066 1216 
L 1550 1216 
z
M 1363 3541 
L 2294 3541 
L 2294 4066 
L 2769 4066 
L 2769 3541 
L 4538 3541 
L 4538 4072 
L 5013 4072 
L 5013 3541 
L 6150 3541 
L 6150 3128 
L 5013 3128 
L 5013 1928 
L 4538 1928 
L 4538 2147 
L 2769 2147 
L 2769 1922 
L 2294 1922 
L 2294 3128 
L 1363 3128 
L 1363 3541 
z
M 3025 5172 
L 3481 5391 
Q 3694 5056 3909 4634 
L 6213 4634 
L 6213 4197 
L 1225 4197 
L 1225 2316 
Q 1225 178 394 -872 
Q 238 -666 38 -447 
Q 725 397 738 2347 
L 738 4634 
L 3331 4634 
Q 3188 4909 3025 5172 
z
M 2769 2547 
L 4538 2547 
L 4538 3128 
L 2769 3128 
L 2769 2547 
z
M 4819 1216 
L 2588 1216 
Q 3031 728 3656 391 
Q 4334 741 4819 1216 
z
" transform="scale(0.015625)"/>
      </defs>
      <use xlink:href="#MicrosoftYaHei-961f"/>
      <use xlink:href="#MicrosoftYaHei-5217" x="100"/>
      <use xlink:href="#MicrosoftYaHei-957f" x="200"/>
      <use xlink:href="#MicrosoftYaHei-5ea6" x="300"/>
     </g>
    </g>
   </g>
   <g id="line2d_25">
    <path d="M 48.53 177.163636 
L 54.117986 177.163636 
L 56.911979 129.454545 
L 65.293958 129.454545 
L 68.087951 81.745455 
L 73.675938 81.745455 
L 76.469931 129.454545 
L 82.057917 129.454545 
L 84.85191 177.163636 
L 90.439896 177.163636 
L 93.233889 129.454545 
L 96.027882 177.163636 
L 107.203854 177.163636 
L 109.997847 129.454545 
L 112.79184 129.454545 
L 115.585833 177.163636 
L 126.761806 177.163636 
L 129.555799 129.454545 
L 132.349792 177.163636 
L 137.937778 177.163636 
L 140.731771 129.454545 
L 143.525764 129.454545 
L 146.319757 177.163636 
L 157.495729 177.163636 
L 160.289722 129.454545 
L 163.083715 177.163636 
L 207.787604 177.163636 
L 210.581597 81.745455 
L 216.169583 177.163636 
L 227.345556 177.163636 
L 230.139549 129.454545 
L 232.933542 177.163636 
L 244.109514 177.163636 
L 246.903507 129.454545 
L 249.6975 177.163636 
L 260.873472 177.163636 
L 263.667465 129.454545 
L 266.461458 177.163636 
L 386.60316 177.163636 
L 389.397153 129.454545 
L 392.191146 177.163636 
L 394.985139 177.163636 
L 397.779132 129.454545 
L 406.161111 129.454545 
L 408.955104 177.163636 
L 411.749097 129.454545 
L 414.54309 129.454545 
L 417.337083 177.163636 
L 436.895035 177.163636 
L 439.689028 129.454545 
L 442.483021 177.163636 
L 464.834965 177.163636 
L 467.628958 129.454545 
L 470.422951 177.163636 
L 478.804931 177.163636 
L 481.598924 129.454545 
L 484.392917 129.454545 
L 487.18691 177.163636 
L 498.362882 177.163636 
L 501.156875 129.454545 
L 503.950868 177.163636 
L 551.44875 177.163636 
L 554.242743 129.454545 
L 557.036736 129.454545 
L 559.830729 177.163636 
L 568.212708 177.163636 
L 571.006701 129.454545 
L 582.182674 129.454545 
L 584.976667 177.163636 
L 601.740625 177.163636 
L 604.534618 129.454545 
L 607.328611 129.454545 
L 610.122604 177.163636 
L 629.680556 177.163636 
L 632.474549 81.745455 
L 635.268542 129.454545 
L 638.062535 129.454545 
L 640.856528 177.163636 
L 643.650521 177.163636 
L 646.444514 129.454545 
L 649.238507 177.163636 
L 679.972431 177.163636 
L 682.766424 129.454545 
L 685.560417 177.163636 
L 702.324375 177.163636 
L 705.118368 129.454545 
L 707.912361 177.163636 
L 710.706354 129.454545 
L 713.500347 177.163636 
L 719.088333 177.163636 
L 721.882326 129.454545 
L 724.676319 177.163636 
L 760.998229 177.163636 
L 763.792222 129.454545 
L 766.586215 177.163636 
L 769.380208 129.454545 
L 772.174201 34.036364 
L 774.968194 81.745455 
L 783.350174 81.745455 
L 788.93816 177.163636 
L 819.672083 177.163636 
L 822.466076 129.454545 
L 825.260069 177.163636 
L 850.406007 177.163636 
L 850.406007 177.163636 
" clip-path="url(#p043644d8a1)" style="fill: none; stroke: #ff0000; stroke-width: 1.5; stroke-linecap: square"/>
   </g>
   <g id="patch_3">
    <path d="M 48.53 184.32 
L 48.53 26.88 
" style="fill: none; stroke: #000000; stroke-width: 0.8; stroke-linejoin: miter; stroke-linecap: square"/>
   </g>
   <g id="patch_4">
    <path d="M 853.2 184.32 
L 853.2 26.88 
" style="fill: none; stroke: #000000; stroke-width: 0.8; stroke-linejoin: miter; stroke-linecap: square"/>
   </g>
   <g id="patch_5">
    <path d="M 48.53 184.32 
L 853.2 184.32 
" style="fill: none; stroke: #000000; stroke-width: 0.8; stroke-linejoin: miter; stroke-linecap: square"/>
   </g>
   <g id="patch_6">
    <path d="M 48.53 26.88 
L 853.2 26.88 
" style="fill: none; stroke: #000000; stroke-width: 0.8; stroke-linejoin: miter; stroke-linecap: square"/>
   </g>
   <g id="text_14">
    <!-- 降落队列长度 -->
    <g transform="translate(414.865 20.88)scale(0.12 -0.12)">
     <defs>
      <path id="MicrosoftYaHei-964d" d="M 2263 3616 
Q 3000 4322 3494 5309 
L 3919 5122 
Q 3803 4919 3688 4728 
L 5788 4728 
L 5788 4303 
Q 5403 3681 4713 3213 
Q 5269 2972 6325 2803 
Q 6294 2728 6125 2353 
Q 4900 2594 4247 2934 
Q 3481 2525 2419 2259 
Q 2319 2491 2194 2672 
Q 3122 2863 3828 3206 
Q 3438 3519 3156 3953 
Q 2878 3591 2588 3297 
Q 2444 3466 2263 3616 
z
M 2181 1678 
Q 2344 509 1588 334 
Q 1388 291 1044 328 
Q 975 597 906 834 
Q 1213 753 1419 784 
Q 1844 859 1706 1678 
Q 1594 2303 1206 2803 
Q 1481 3703 1688 4472 
L 869 4472 
L 869 -841 
L 400 -841 
L 400 4909 
L 2200 4909 
L 2200 4472 
Q 1806 3222 1700 2884 
Q 2094 2316 2181 1678 
z
M 2925 584 
L 4125 584 
L 4125 1591 
L 2500 1591 
L 2500 2016 
L 4125 2016 
L 4125 2597 
L 4594 2597 
L 4594 2016 
L 6088 2016 
L 6088 1591 
L 4594 1591 
L 4594 584 
L 6138 584 
L 6138 159 
L 4594 159 
L 4594 -847 
L 4125 -847 
L 4125 159 
L 2456 159 
L 2456 616 
L 2700 1422 
L 3169 1422 
L 2925 584 
z
M 5244 4303 
L 3422 4303 
Q 3806 3753 4269 3450 
Q 4850 3813 5244 4303 
z
" transform="scale(0.015625)"/>
      <path id="MicrosoftYaHei-843d" d="M 1663 2447 
Q 2500 3172 2919 4053 
L 3388 3953 
Q 3278 3744 3156 3547 
L 5594 3547 
L 5594 3147 
Q 5178 2559 4447 2122 
Q 5256 1813 6344 1753 
Q 6219 1491 6138 1272 
Q 4850 1447 3969 1866 
Q 3063 1438 1781 1191 
Q 1694 1384 1569 1616 
Q 2675 1772 3513 2116 
Q 3009 2434 2681 2856 
Q 2369 2456 2000 2109 
Q 1856 2272 1663 2447 
z
M 2288 1203 
L 5519 1203 
L 5519 -822 
L 5056 -822 
L 5056 -491 
L 2750 -491 
L 2750 -822 
L 2288 -822 
L 2288 1203 
z
M 138 4691 
L 1863 4691 
L 1863 5328 
L 2338 5328 
L 2338 4691 
L 4075 4691 
L 4075 5328 
L 4550 5328 
L 4550 4691 
L 6263 4691 
L 6263 4266 
L 4550 4266 
L 4550 3809 
L 4075 3809 
L 4075 4266 
L 2338 4266 
L 2338 3784 
L 1863 3784 
L 1863 4266 
L 138 4266 
L 138 4691 
z
M 5056 791 
L 2750 791 
L 2750 -78 
L 5056 -78 
L 5056 791 
z
M 181 -622 
Q 619 278 1031 1478 
Q 1244 1359 1500 1247 
Q 1119 322 700 -834 
L 181 -622 
z
M 5069 3147 
L 2972 3147 
Q 3381 2656 3981 2334 
Q 4622 2675 5069 3147 
z
M 44 2459 
L 325 2828 
Q 850 2522 1356 2172 
Q 1181 1953 1038 1759 
Q 575 2122 44 2459 
z
M 475 3641 
L 756 3991 
Q 1350 3616 1738 3316 
Q 1569 3109 1438 2928 
Q 956 3316 475 3641 
z
" transform="scale(0.015625)"/>
     </defs>
     <use xlink:href="#MicrosoftYaHei-964d"/>
     <use xlink:href="#MicrosoftYaHei-843d" x="100"/>
     <use xlink:href="#MicrosoftYaHei-961f" x="200"/>
     <use xlink:href="#MicrosoftYaHei-5217" x="300"/>
     <use xlink:href="#MicrosoftYaHei-957f" x="400"/>
     <use xlink:href="#MicrosoftYaHei-5ea6" x="500"/>
    </g>
   </g>
  </g>
  <g id="axes_2">
   <g id="patch_7">
    <path d="M 48.53 387.16 
L 853.2 387.16 
L 853.2 229.72 
L 48.53 229.72 
z
" style="fill: #ffffff"/>
   </g>
   <g id="matplotlib.axis_3">
    <g id="xtick_6">
     <g id="line2d_26">
      <path d="M 48.53 387.16 
L 48.53 229.72 
" clip-path="url(#p53324ab2e3)" style="fill: none; stroke: #b0b0b0; stroke-width: 0.8; stroke-linecap: square"/>
     </g>
     <g id="line2d_27">
      <g>
       <use xlink:href="#mc3c1f32637" x="48.53" y="387.16" style="stroke: #000000; stroke-width: 0.8"/>
      </g>
     </g>
     <g id="text_15">
      <!-- 0 -->
      <g transform="translate(45.446406 402.15375)scale(0.1 -0.1)">
       <use xlink:href="#MicrosoftYaHei-Bold-30"/>
      </g>
     </g>
    </g>
    <g id="xtick_7">
     <g id="line2d_28">
      <path d="M 216.169583 387.16 
L 216.169583 229.72 
" clip-path="url(#p53324ab2e3)" style="fill: none; stroke: #b0b0b0; stroke-width: 0.8; stroke-linecap: square"/>
     </g>
     <g id="line2d_29">
      <g>
       <use xlink:href="#mc3c1f32637" x="216.169583" y="387.16" style="stroke: #000000; stroke-width: 0.8"/>
      </g>
     </g>
     <g id="text_16">
      <!-- 5 -->
      <g transform="translate(213.08599 402.15375)scale(0.1 -0.1)">
       <use xlink:href="#MicrosoftYaHei-Bold-35"/>
      </g>
     </g>
    </g>
    <g id="xtick_8">
     <g id="line2d_30">
      <path d="M 383.809167 387.16 
L 383.809167 229.72 
" clip-path="url(#p53324ab2e3)" style="fill: none; stroke: #b0b0b0; stroke-width: 0.8; stroke-linecap: square"/>
     </g>
     <g id="line2d_31">
      <g>
       <use xlink:href="#mc3c1f32637" x="383.809167" y="387.16" style="stroke: #000000; stroke-width: 0.8"/>
      </g>
     </g>
     <g id="text_17">
      <!-- 10 -->
      <g transform="translate(377.641979 402.15375)scale(0.1 -0.1)">
       <use xlink:href="#MicrosoftYaHei-Bold-31"/>
       <use xlink:href="#MicrosoftYaHei-Bold-30" x="61.669922"/>
      </g>
     </g>
    </g>
    <g id="xtick_9">
     <g id="line2d_32">
      <path d="M 551.44875 387.16 
L 551.44875 229.72 
" clip-path="url(#p53324ab2e3)" style="fill: none; stroke: #b0b0b0; stroke-width: 0.8; stroke-linecap: square"/>
     </g>
     <g id="line2d_33">
      <g>
       <use xlink:href="#mc3c1f32637" x="551.44875" y="387.16" style="stroke: #000000; stroke-width: 0.8"/>
      </g>
     </g>
     <g id="text_18">
      <!-- 15 -->
      <g transform="translate(545.281563 402.15375)scale(0.1 -0.1)">
       <use xlink:href="#MicrosoftYaHei-Bold-31"/>
       <use xlink:href="#MicrosoftYaHei-Bold-35" x="61.669922"/>
      </g>
     </g>
    </g>
    <g id="xtick_10">
     <g id="line2d_34">
      <path d="M 719.088333 387.16 
L 719.088333 229.72 
" clip-path="url(#p53324ab2e3)" style="fill: none; stroke: #b0b0b0; stroke-width: 0.8; stroke-linecap: square"/>
     </g>
     <g id="line2d_35">
      <g>
       <use xlink:href="#mc3c1f32637" x="719.088333" y="387.16" style="stroke: #000000; stroke-width: 0.8"/>
      </g>
     </g>
     <g id="text_19">
      <!-- 20 -->
      <g transform="translate(712.921146 402.15375)scale(0.1 -0.1)">
       <use xlink:href="#MicrosoftYaHei-Bold-32"/>
       <use xlink:href="#MicrosoftYaHei-Bold-30" x="61.669922"/>
      </g>
     </g>
    </g>
    <g id="text_20">
     <!-- 时间（小时） -->
     <g transform="translate(420.865 416.633438)scale(0.1 -0.1)">
      <defs>
       <path id="MicrosoftYaHei-65f6" d="M 344 4728 
L 2500 4728 
L 2500 -366 
L 2006 -366 
L 2006 153 
L 838 153 
L 838 -441 
L 344 -441 
L 344 4728 
z
M 2706 3941 
L 4925 3941 
L 4925 5322 
L 5425 5322 
L 5425 3941 
L 6313 3941 
L 6313 3478 
L 5425 3478 
L 5425 116 
Q 5425 -722 4625 -722 
Q 4263 -722 3563 -703 
Q 3531 -478 3463 -178 
Q 4119 -228 4488 -228 
Q 4925 -228 4925 216 
L 4925 3478 
L 2706 3478 
L 2706 3941 
z
M 838 616 
L 2006 616 
L 2006 2234 
L 838 2234 
L 838 616 
z
M 2006 4266 
L 838 4266 
L 838 2684 
L 2006 2684 
L 2006 4266 
z
M 3406 2878 
Q 3906 1966 4163 1422 
Q 4000 1347 3663 1172 
Q 3419 1766 2963 2653 
L 3406 2878 
z
" transform="scale(0.015625)"/>
       <path id="MicrosoftYaHei-95f4" d="M 1863 3647 
L 4513 3647 
L 4513 553 
L 2313 553 
L 2313 166 
L 1863 166 
L 1863 3647 
z
M 2388 4453 
L 2388 4922 
L 6013 4922 
L 6013 -28 
Q 6013 -816 5119 -816 
Q 4756 -816 4169 -803 
Q 4144 -616 4069 -297 
Q 4588 -334 5056 -334 
Q 5525 -334 5525 122 
L 5525 4453 
L 2388 4453 
z
M 419 4084 
L 906 4084 
L 906 -816 
L 419 -816 
L 419 4084 
z
M 2313 997 
L 4063 997 
L 4063 1884 
L 2313 1884 
L 2313 997 
z
M 4063 3203 
L 2313 3203 
L 2313 2328 
L 4063 2328 
L 4063 3203 
z
M 744 5003 
L 1100 5322 
Q 1575 4872 1981 4447 
L 1575 4091 
Q 1194 4541 744 5003 
z
" transform="scale(0.015625)"/>
       <path id="MicrosoftYaHei-ff08" d="M 5288 -1100 
Q 4172 119 4172 1850 
Q 4172 3603 5288 4838 
L 5825 4838 
Q 4716 3572 4716 1856 
Q 4716 166 5819 -1100 
L 5288 -1100 
z
" transform="scale(0.015625)"/>
       <path id="MicrosoftYaHei-5c0f" d="M 1513 3878 
L 2025 3697 
Q 1425 1984 625 478 
Q 413 609 113 759 
Q 831 1972 1513 3878 
z
M 4300 3641 
L 4769 3866 
Q 5563 2422 6319 828 
L 5750 559 
Q 4988 2328 4300 3641 
z
M 3000 5247 
L 3556 5247 
L 3556 66 
Q 3556 -747 2675 -747 
Q 2325 -747 1744 -728 
Q 1700 -453 1638 -141 
Q 2238 -197 2556 -197 
Q 3000 -197 3000 203 
L 3000 5247 
z
" transform="scale(0.015625)"/>
       <path id="MicrosoftYaHei-ff09" d="M 1113 -1100 
L 575 -1100 
Q 1684 163 1684 1888 
Q 1684 3581 581 4838 
L 1113 4838 
Q 2222 3628 2222 1888 
Q 2222 128 1113 -1100 
z
" transform="scale(0.015625)"/>
      </defs>
      <use xlink:href="#MicrosoftYaHei-65f6"/>
      <use xlink:href="#MicrosoftYaHei-95f4" x="100"/>
      <use xlink:href="#MicrosoftYaHei-ff08" x="200"/>
      <use xlink:href="#MicrosoftYaHei-5c0f" x="300"/>
      <use xlink:href="#MicrosoftYaHei-65f6" x="400"/>
      <use xlink:href="#MicrosoftYaHei-ff09" x="500"/>
     </g>
    </g>
   </g>
   <g id="matplotlib.axis_4">
    <g id="ytick_8">
     <g id="line2d_36">
      <path d="M 48.53 380.003636 
L 853.2 380.003636 
" clip-path="url(#p53324ab2e3)" style="fill: none; stroke: #b0b0b0; stroke-width: 0.8; stroke-linecap: square"/>
     </g>
     <g id="line2d_37">
      <g>
       <use xlink:href="#m70dec8a4f1" x="48.53" y="380.003636" style="stroke: #000000; stroke-width: 0.8"/>
      </g>
     </g>
     <g id="text_21">
      <!-- 0 -->
      <g transform="translate(35.362813 384.000511)scale(0.1 -0.1)">
       <use xlink:href="#MicrosoftYaHei-Bold-30"/>
      </g>
     </g>
    </g>
    <g id="ytick_9">
     <g id="line2d_38">
      <path d="M 48.53 344.221818 
L 853.2 344.221818 
" clip-path="url(#p53324ab2e3)" style="fill: none; stroke: #b0b0b0; stroke-width: 0.8; stroke-linecap: square"/>
     </g>
     <g id="line2d_39">
      <g>
       <use xlink:href="#m70dec8a4f1" x="48.53" y="344.221818" style="stroke: #000000; stroke-width: 0.8"/>
      </g>
     </g>
     <g id="text_22">
      <!-- 2 -->
      <g transform="translate(35.362813 348.218693)scale(0.1 -0.1)">
       <use xlink:href="#MicrosoftYaHei-Bold-32"/>
      </g>
     </g>
    </g>
    <g id="ytick_10">
     <g id="line2d_40">
      <path d="M 48.53 308.44 
L 853.2 308.44 
" clip-path="url(#p53324ab2e3)" style="fill: none; stroke: #b0b0b0; stroke-width: 0.8; stroke-linecap: square"/>
     </g>
     <g id="line2d_41">
      <g>
       <use xlink:href="#m70dec8a4f1" x="48.53" y="308.44" style="stroke: #000000; stroke-width: 0.8"/>
      </g>
     </g>
     <g id="text_23">
      <!-- 4 -->
      <g transform="translate(35.362813 312.436875)scale(0.1 -0.1)">
       <defs>
        <path id="MicrosoftYaHei-Bold-34" d="M 3184 4841 
L 3184 1766 
L 3869 1766 
L 3869 1031 
L 3184 1031 
L 3184 0 
L 2266 0 
L 2266 1031 
L 103 1031 
L 103 1772 
Q 775 2522 1362 3359 
Q 1950 4197 2250 4841 
L 3184 4841 
z
M 997 1766 
L 2266 1766 
L 2266 3541 
Q 2116 3259 1836 2859 
Q 1556 2459 997 1766 
z
" transform="scale(0.015625)"/>
       </defs>
       <use xlink:href="#MicrosoftYaHei-Bold-34"/>
      </g>
     </g>
    </g>
    <g id="ytick_11">
     <g id="line2d_42">
      <path d="M 48.53 272.658182 
L 853.2 272.658182 
" clip-path="url(#p53324ab2e3)" style="fill: none; stroke: #b0b0b0; stroke-width: 0.8; stroke-linecap: square"/>
     </g>
     <g id="line2d_43">
      <g>
       <use xlink:href="#m70dec8a4f1" x="48.53" y="272.658182" style="stroke: #000000; stroke-width: 0.8"/>
      </g>
     </g>
     <g id="text_24">
      <!-- 6 -->
      <g transform="translate(35.362813 276.655057)scale(0.1 -0.1)">
       <defs>
        <path id="MicrosoftYaHei-Bold-36" d="M 3378 3938 
Q 3009 4147 2575 4147 
Q 2016 4147 1680 3708 
Q 1344 3269 1344 2572 
L 1363 2572 
Q 1709 3103 2391 3103 
Q 3000 3103 3358 2686 
Q 3716 2269 3716 1600 
Q 3716 869 3250 392 
Q 2784 -84 2059 -84 
Q 1228 -84 786 516 
Q 344 1116 344 2159 
Q 344 3388 917 4155 
Q 1491 4922 2513 4922 
Q 3063 4922 3378 4791 
L 3378 3938 
z
M 1378 1591 
Q 1378 1216 1565 953 
Q 1753 691 2059 691 
Q 2369 691 2547 931 
Q 2725 1172 2725 1534 
Q 2725 2350 2053 2350 
Q 1750 2350 1564 2134 
Q 1378 1919 1378 1591 
z
" transform="scale(0.015625)"/>
       </defs>
       <use xlink:href="#MicrosoftYaHei-Bold-36"/>
      </g>
     </g>
    </g>
    <g id="ytick_12">
     <g id="line2d_44">
      <path d="M 48.53 236.876364 
L 853.2 236.876364 
" clip-path="url(#p53324ab2e3)" style="fill: none; stroke: #b0b0b0; stroke-width: 0.8; stroke-linecap: square"/>
     </g>
     <g id="line2d_45">
      <g>
       <use xlink:href="#m70dec8a4f1" x="48.53" y="236.876364" style="stroke: #000000; stroke-width: 0.8"/>
      </g>
     </g>
     <g id="text_25">
      <!-- 8 -->
      <g transform="translate(35.362813 240.873239)scale(0.1 -0.1)">
       <defs>
        <path id="MicrosoftYaHei-Bold-38" d="M 269 1303 
Q 269 1725 512 2053 
Q 756 2381 1219 2534 
Q 850 2719 648 3003 
Q 447 3288 447 3634 
Q 447 3997 645 4292 
Q 844 4588 1200 4755 
Q 1556 4922 1997 4922 
Q 2441 4922 2800 4758 
Q 3159 4594 3359 4298 
Q 3559 4003 3559 3647 
Q 3559 3309 3339 3018 
Q 3119 2728 2747 2559 
Q 3200 2403 3453 2076 
Q 3706 1750 3706 1313 
Q 3706 697 3228 309 
Q 2750 -78 1988 -78 
Q 1225 -78 747 309 
Q 269 697 269 1303 
z
M 1278 1394 
Q 1278 1056 1472 853 
Q 1666 650 1991 650 
Q 2303 650 2503 853 
Q 2703 1056 2703 1394 
Q 2703 1709 2500 1920 
Q 2297 2131 1991 2131 
Q 1675 2131 1476 1920 
Q 1278 1709 1278 1394 
z
M 1428 3531 
Q 1428 3266 1592 3077 
Q 1756 2888 2006 2888 
Q 2247 2888 2415 3072 
Q 2584 3256 2584 3531 
Q 2584 3806 2420 3997 
Q 2256 4188 2006 4188 
Q 1750 4188 1589 3997 
Q 1428 3806 1428 3531 
z
" transform="scale(0.015625)"/>
       </defs>
       <use xlink:href="#MicrosoftYaHei-Bold-38"/>
      </g>
     </g>
    </g>
    <g id="text_26">
     <!-- 占用数量 -->
     <g transform="translate(28.876875 328.44)rotate(-90)scale(0.1 -0.1)">
      <defs>
       <path id="MicrosoftYaHei-5360" d="M 863 2434 
L 2775 2434 
L 2775 5259 
L 3288 5259 
L 3288 4209 
L 6150 4209 
L 6150 3747 
L 3288 3747 
L 3288 2434 
L 5525 2434 
L 5525 -841 
L 5025 -841 
L 5025 -453 
L 1363 -453 
L 1363 -853 
L 863 -853 
L 863 2434 
z
M 5025 1984 
L 1363 1984 
L 1363 -9 
L 5025 -9 
L 5025 1984 
z
" transform="scale(0.015625)"/>
       <path id="MicrosoftYaHei-7528" d="M 3088 -734 
L 3088 1253 
L 1269 1253 
Q 1163 -47 513 -903 
Q 350 -697 144 -472 
Q 550 103 694 803 
Q 831 1478 831 2716 
L 831 4947 
L 5925 4947 
L 5925 -22 
Q 5925 -766 5219 -766 
Q 4788 -766 4250 -747 
Q 4219 -541 4156 -228 
Q 4700 -266 5038 -266 
Q 5425 -266 5425 103 
L 5425 1253 
L 3588 1253 
L 3588 -734 
L 3088 -734 
z
M 3588 1703 
L 5425 1703 
L 5425 2872 
L 3588 2872 
L 3588 1703 
z
M 5425 4484 
L 3588 4484 
L 3588 3322 
L 5425 3322 
L 5425 4484 
z
M 1303 1703 
L 3088 1703 
L 3088 2872 
L 1331 2872 
Q 1350 2266 1303 1703 
z
M 1331 4484 
L 1331 3322 
L 3088 3322 
L 3088 4484 
L 1331 4484 
z
" transform="scale(0.015625)"/>
       <path id="MicrosoftYaHei-6570" d="M 4175 5303 
L 4675 5228 
Q 4544 4622 4369 4097 
L 6281 4097 
L 6281 3672 
L 5888 3672 
Q 5731 1834 5088 753 
Q 5594 66 6375 -372 
Q 6175 -647 6038 -866 
Q 5275 -372 4769 309 
Q 4194 -403 3400 -928 
Q 3263 -747 3044 -534 
Q 3919 41 4463 772 
Q 3956 1647 3794 2791 
Q 3663 2559 3519 2359 
Q 3394 2541 3206 2759 
Q 3931 3803 4175 5303 
z
M 150 1697 
L 1100 1697 
Q 1238 1934 1369 2184 
L 1819 2041 
Q 1719 1866 1619 1697 
L 3150 1697 
L 3150 1291 
Q 2913 678 2431 216 
Q 2775 53 3131 -109 
L 2856 -541 
Q 2469 -322 2050 -103 
Q 1344 -609 269 -903 
Q 169 -703 56 -466 
Q 969 -259 1600 128 
Q 1063 403 475 691 
Q 675 978 863 1284 
L 150 1284 
L 150 1697 
z
M 219 3847 
L 1656 3847 
L 1656 5247 
L 2119 5247 
L 2119 3847 
L 3319 3847 
L 3319 3434 
L 2119 3434 
L 2119 3053 
L 2306 3266 
Q 2888 2841 3281 2516 
L 2981 2166 
Q 2638 2491 2119 2897 
L 2119 2184 
L 1656 2184 
L 1656 3059 
Q 1088 2466 331 2016 
Q 213 2197 63 2397 
Q 850 2822 1506 3434 
L 219 3434 
L 219 3847 
z
M 5388 3672 
L 4219 3672 
Q 4188 3591 4150 3516 
Q 4263 2191 4775 1247 
Q 5275 2159 5388 3672 
z
M 1088 834 
Q 1531 634 2000 416 
Q 2431 784 2675 1284 
L 1375 1284 
Q 1231 1053 1088 834 
z
M 3038 5091 
L 3425 4834 
Q 3081 4384 2738 4003 
Q 2594 4128 2400 4266 
Q 2725 4647 3038 5091 
z
M 381 4816 
L 738 5059 
Q 1019 4716 1319 4322 
L 931 4047 
Q 656 4453 381 4816 
z
" transform="scale(0.015625)"/>
       <path id="MicrosoftYaHei-91cf" d="M 113 -278 
L 2981 -278 
L 2981 78 
L 475 78 
L 475 403 
L 2981 403 
L 2981 759 
L 1494 759 
L 1494 597 
L 1069 597 
L 1069 2516 
L 5350 2516 
L 5350 597 
L 4925 597 
L 4925 759 
L 3419 759 
L 3419 403 
L 5931 403 
L 5931 78 
L 3419 78 
L 3419 -278 
L 6288 -278 
L 6288 -616 
L 113 -616 
L 113 -278 
z
M 1119 5072 
L 5306 5072 
L 5306 3284 
L 4881 3284 
L 4881 3453 
L 1544 3453 
L 1544 3284 
L 1119 3284 
L 1119 5072 
z
M 163 3153 
L 6263 3153 
L 6263 2816 
L 163 2816 
L 163 3153 
z
M 1544 3778 
L 4881 3778 
L 4881 4116 
L 1544 4116 
L 1544 3778 
z
M 4881 4747 
L 1544 4747 
L 1544 4416 
L 4881 4416 
L 4881 4747 
z
M 3419 1084 
L 4925 1084 
L 4925 1491 
L 3419 1491 
L 3419 1084 
z
M 1494 1084 
L 2981 1084 
L 2981 1491 
L 1494 1491 
L 1494 1084 
z
M 4925 2191 
L 3419 2191 
L 3419 1791 
L 4925 1791 
L 4925 2191 
z
M 1494 1791 
L 2981 1791 
L 2981 2191 
L 1494 2191 
L 1494 1791 
z
" transform="scale(0.015625)"/>
      </defs>
      <use xlink:href="#MicrosoftYaHei-5360"/>
      <use xlink:href="#MicrosoftYaHei-7528" x="100"/>
      <use xlink:href="#MicrosoftYaHei-6570" x="200"/>
      <use xlink:href="#MicrosoftYaHei-91cf" x="300"/>
     </g>
    </g>
   </g>
   <g id="line2d_46">
    <path d="M 48.53 380.003636 
L 51.323993 254.767273 
L 54.117986 236.876364 
L 56.911979 254.767273 
L 59.705972 236.876364 
L 104.409861 236.876364 
L 107.203854 254.767273 
L 109.997847 236.876364 
L 129.555799 236.876364 
L 132.349792 254.767273 
L 135.143785 236.876364 
L 137.937778 236.876364 
L 140.731771 254.767273 
L 143.525764 236.876364 
L 146.319757 254.767273 
L 149.11375 236.876364 
L 154.701736 236.876364 
L 157.495729 254.767273 
L 160.289722 236.876364 
L 165.877708 236.876364 
L 168.671701 254.767273 
L 171.465694 236.876364 
L 177.053681 272.658182 
L 179.847674 236.876364 
L 182.641667 236.876364 
L 185.43566 254.767273 
L 188.229653 236.876364 
L 191.023646 236.876364 
L 193.817639 254.767273 
L 199.405625 254.767273 
L 202.199618 236.876364 
L 204.993611 254.767273 
L 207.787604 236.876364 
L 216.169583 236.876364 
L 218.963576 254.767273 
L 221.757569 254.767273 
L 224.551563 236.876364 
L 232.933542 236.876364 
L 235.727535 254.767273 
L 238.521528 254.767273 
L 241.315521 236.876364 
L 249.6975 236.876364 
L 252.491493 254.767273 
L 255.285486 236.876364 
L 258.079479 236.876364 
L 260.873472 254.767273 
L 263.667465 236.876364 
L 266.461458 236.876364 
L 269.255451 254.767273 
L 272.049444 236.876364 
L 274.843438 254.767273 
L 277.637431 236.876364 
L 294.401389 236.876364 
L 297.195382 254.767273 
L 299.989375 236.876364 
L 302.783368 236.876364 
L 305.577361 254.767273 
L 308.371354 236.876364 
L 330.723299 236.876364 
L 333.517292 254.767273 
L 336.311285 236.876364 
L 353.075243 236.876364 
L 355.869236 254.767273 
L 358.663229 254.767273 
L 361.457222 236.876364 
L 364.251215 254.767273 
L 367.045208 254.767273 
L 369.839201 236.876364 
L 394.985139 236.876364 
L 397.779132 254.767273 
L 400.573125 236.876364 
L 414.54309 236.876364 
L 417.337083 254.767273 
L 420.131076 236.876364 
L 422.925069 254.767273 
L 425.719063 236.876364 
L 428.513056 236.876364 
L 431.307049 254.767273 
L 436.895035 254.767273 
L 439.689028 236.876364 
L 450.865 236.876364 
L 453.658993 254.767273 
L 456.452986 236.876364 
L 459.246979 254.767273 
L 462.040972 254.767273 
L 464.834965 236.876364 
L 470.422951 236.876364 
L 473.216944 254.767273 
L 476.010938 254.767273 
L 478.804931 236.876364 
L 489.980903 236.876364 
L 492.774896 254.767273 
L 495.568889 254.767273 
L 498.362882 236.876364 
L 506.744861 236.876364 
L 509.538854 254.767273 
L 512.332847 236.876364 
L 515.12684 254.767273 
L 517.920833 236.876364 
L 531.890799 236.876364 
L 534.684792 254.767273 
L 537.478785 236.876364 
L 540.272778 236.876364 
L 543.066771 254.767273 
L 545.860764 254.767273 
L 548.654757 236.876364 
L 557.036736 236.876364 
L 559.830729 254.767273 
L 562.624722 236.876364 
L 610.122604 236.876364 
L 612.916597 254.767273 
L 615.71059 236.876364 
L 626.886563 236.876364 
L 629.680556 254.767273 
L 632.474549 236.876364 
L 652.0325 236.876364 
L 654.826493 254.767273 
L 657.620486 236.876364 
L 660.414479 254.767273 
L 663.208472 236.876364 
L 691.148403 236.876364 
L 693.942396 254.767273 
L 696.736389 236.876364 
L 749.822257 236.876364 
L 752.61625 254.767273 
L 755.410243 236.876364 
L 758.204236 236.876364 
L 760.998229 254.767273 
L 763.792222 236.876364 
L 791.732153 236.876364 
L 794.526146 254.767273 
L 797.320139 236.876364 
L 800.114132 254.767273 
L 802.908125 236.876364 
L 811.290104 236.876364 
L 814.084097 254.767273 
L 816.87809 236.876364 
L 828.054063 236.876364 
L 830.848056 254.767273 
L 844.818021 254.767273 
L 847.612014 236.876364 
L 850.406007 236.876364 
L 850.406007 236.876364 
" clip-path="url(#p53324ab2e3)" style="fill: none; stroke: #1f77b4; stroke-width: 1.5; stroke-linecap: square"/>
   </g>
   <g id="patch_8">
    <path d="M 48.53 387.16 
L 48.53 229.72 
" style="fill: none; stroke: #000000; stroke-width: 0.8; stroke-linejoin: miter; stroke-linecap: square"/>
   </g>
   <g id="patch_9">
    <path d="M 853.2 387.16 
L 853.2 229.72 
" style="fill: none; stroke: #000000; stroke-width: 0.8; stroke-linejoin: miter; stroke-linecap: square"/>
   </g>
   <g id="patch_10">
    <path d="M 48.53 387.16 
L 853.2 387.16 
" style="fill: none; stroke: #000000; stroke-width: 0.8; stroke-linejoin: miter; stroke-linecap: square"/>
   </g>
   <g id="patch_11">
    <path d="M 48.53 229.72 
L 853.2 229.72 
" style="fill: none; stroke: #000000; stroke-width: 0.8; stroke-linejoin: miter; stroke-linecap: square"/>
   </g>
   <g id="text_27">
    <!-- 降落空域走廊占用情况 -->
    <g transform="translate(390.865 223.72)scale(0.12 -0.12)">
     <defs>
      <path id="MicrosoftYaHei-7a7a" d="M 331 -34 
L 2931 -34 
L 2931 1603 
L 975 1603 
L 975 2078 
L 5425 2078 
L 5425 1603 
L 3463 1603 
L 3463 -34 
L 6069 -34 
L 6069 -509 
L 331 -509 
L 331 -34 
z
M 369 4528 
L 3084 4528 
Q 2941 4800 2725 5141 
L 3188 5366 
Q 3444 4997 3631 4641 
L 3403 4528 
L 6038 4528 
L 6038 3316 
L 5525 3316 
L 5525 4053 
L 881 4053 
L 881 3316 
L 369 3316 
L 369 4528 
z
M 2381 3741 
L 2750 3384 
Q 1538 2434 469 1834 
Q 275 2091 94 2241 
Q 1319 2866 2381 3741 
z
M 3988 3734 
Q 5300 2953 6269 2259 
L 5913 1828 
Q 4969 2566 3688 3372 
L 3988 3734 
z
" transform="scale(0.015625)"/>
      <path id="MicrosoftYaHei-57df" d="M 3231 -522 
Q 3941 63 4484 841 
Q 4269 1816 4219 3803 
L 2025 3803 
L 2025 4241 
L 4206 4241 
Q 4197 4747 4194 5328 
L 4675 5328 
Q 4669 4759 4675 4241 
L 6219 4241 
L 6219 3803 
L 4684 3803 
Q 4716 2384 4853 1419 
Q 5300 2191 5606 3122 
L 6050 2934 
Q 5572 1691 4981 763 
Q 5113 269 5313 -41 
Q 5481 -309 5600 -309 
Q 5713 -309 5756 -41 
Q 5813 284 5844 934 
Q 6113 828 6313 772 
Q 6225 34 6163 -272 
Q 6056 -822 5656 -828 
Q 5350 -822 5088 -522 
Q 4828 -234 4647 275 
Q 4169 -372 3625 -834 
Q 3450 -684 3231 -522 
z
M 69 441 
Q 478 566 875 697 
L 875 3141 
L 138 3141 
L 138 3578 
L 875 3578 
L 875 5316 
L 1338 5316 
L 1338 3578 
L 2031 3578 
L 2031 3141 
L 1338 3141 
L 1338 853 
Q 1666 966 1988 1084 
Q 1988 1016 2031 622 
Q 1156 303 188 -66 
L 69 441 
z
M 2175 3103 
L 3769 3103 
L 3769 1159 
L 3338 1159 
L 3338 1303 
L 2606 1303 
L 2606 1084 
L 2175 1084 
L 2175 3103 
z
M 1694 353 
Q 2825 528 3981 766 
Q 3975 666 4006 341 
Q 3081 172 1856 -84 
L 1694 353 
z
M 3338 2703 
L 2606 2703 
L 2606 1703 
L 3338 1703 
L 3338 2703 
z
M 5188 5241 
Q 5650 4916 5931 4666 
L 5644 4334 
Q 5363 4603 4919 4953 
L 5188 5241 
z
" transform="scale(0.015625)"/>
      <path id="MicrosoftYaHei-8d70" d="M 163 -416 
Q 1125 497 1331 1978 
L 1800 1866 
Q 1688 1291 1513 809 
Q 2044 -84 3006 -159 
L 3006 2234 
L 3519 2234 
L 3519 1434 
L 5600 1434 
L 5600 997 
L 3519 997 
L 3519 -172 
Q 4931 -184 6269 -134 
Q 6175 -378 6094 -628 
Q 4269 -653 3063 -609 
Q 1950 -572 1319 353 
Q 981 -341 469 -816 
Q 313 -584 163 -416 
z
M 6100 2384 
L 300 2384 
L 300 2822 
L 2894 2822 
L 2894 3884 
L 850 3884 
L 850 4322 
L 2894 4322 
L 2894 5297 
L 3406 5297 
L 3406 4322 
L 5550 4322 
L 5550 3884 
L 3406 3884 
L 3406 2822 
L 6100 2822 
L 6100 2384 
z
" transform="scale(0.015625)"/>
      <path id="MicrosoftYaHei-5eca" d="M 3013 1047 
Q 3444 503 3881 -216 
L 3463 -447 
Q 3338 -191 3163 78 
Q 2606 -191 2125 -484 
Q 1994 -559 1788 -747 
L 1431 -278 
Q 1625 -97 1625 134 
L 1625 3472 
L 2406 3472 
Q 2313 3666 2169 3922 
L 2569 4116 
Q 2750 3822 2906 3472 
L 3588 3472 
L 3588 1053 
L 3150 1053 
L 3150 1197 
L 2063 1197 
L 2063 -3 
Q 2488 203 2944 422 
Q 2819 622 2638 834 
L 3013 1047 
z
M 1144 2428 
Q 1150 241 450 -791 
Q 288 -578 81 -391 
Q 688 428 688 2203 
L 688 4603 
L 3306 4603 
Q 3169 4834 2994 5103 
L 3419 5334 
Q 3613 5053 3875 4603 
L 6275 4603 
L 6275 4166 
L 1144 4166 
L 1144 2428 
z
M 6075 853 
Q 6194 -72 5394 -184 
Q 5113 -222 4669 -159 
Q 4644 41 4581 347 
Q 4994 272 5238 272 
Q 5713 272 5613 872 
Q 5531 1322 4869 1891 
Q 5156 2403 5531 3247 
L 4538 3247 
L 4538 -891 
L 4100 -891 
L 4100 3666 
L 6025 3666 
L 6025 3216 
Q 5731 2597 5400 1984 
Q 6013 1441 6075 853 
z
M 3150 3097 
L 2063 3097 
L 2063 2516 
L 3150 2516 
L 3150 3097 
z
M 2063 1572 
L 3150 1572 
L 3150 2153 
L 2063 2153 
L 2063 1572 
z
" transform="scale(0.015625)"/>
      <path id="MicrosoftYaHei-60c5" d="M 2806 -797 
L 2331 -797 
L 2331 2372 
L 5844 2372 
L 5844 -41 
Q 5844 -734 5213 -747 
Q 4800 -753 4150 -747 
Q 4119 -547 4056 -266 
Q 4650 -303 5025 -303 
Q 5369 -303 5369 -3 
L 5369 334 
L 2806 334 
L 2806 -797 
z
M 1925 3147 
L 3838 3147 
L 3838 3578 
L 2263 3578 
L 2263 3972 
L 3838 3972 
L 3838 4391 
L 2088 4391 
L 2088 4784 
L 3838 4784 
L 3838 5347 
L 4313 5347 
L 4313 4784 
L 6188 4784 
L 6188 4391 
L 4313 4391 
L 4313 3972 
L 6013 3972 
L 6013 3578 
L 4313 3578 
L 4313 3147 
L 6319 3147 
L 6319 2753 
L 1925 2753 
L 1925 3147 
z
M 931 5291 
L 1375 5291 
L 1375 4019 
L 1613 4191 
Q 1931 3816 2181 3497 
L 1831 3241 
Q 1638 3525 1375 3869 
L 1375 -816 
L 931 -816 
L 931 5291 
z
M 5369 1972 
L 2806 1972 
L 2806 1541 
L 5369 1541 
L 5369 1972 
z
M 2806 722 
L 5369 722 
L 5369 1153 
L 2806 1153 
L 2806 722 
z
M 319 3866 
L 719 3816 
Q 650 3059 494 2209 
Q 350 2247 88 2297 
Q 225 2909 319 3866 
z
" transform="scale(0.015625)"/>
      <path id="MicrosoftYaHei-51b5" d="M 2550 1984 
L 2063 1984 
L 2063 4997 
L 5763 4997 
L 5763 1984 
L 5275 1984 
L 5275 2259 
L 4675 2259 
L 4675 72 
Q 4675 -241 4969 -241 
L 5400 -241 
Q 5700 -241 5738 91 
Q 5781 384 5794 866 
Q 6006 778 6300 678 
Q 6256 184 6194 -147 
Q 6106 -691 5506 -691 
L 4888 -691 
Q 4188 -691 4188 -9 
L 4188 2259 
L 3541 2259 
Q 3519 1069 3163 453 
Q 2775 -253 1663 -866 
Q 1525 -653 1350 -441 
Q 2375 122 2725 716 
Q 3038 1216 3059 2259 
L 2550 2259 
L 2550 1984 
z
M 5275 4547 
L 2550 4547 
L 2550 2709 
L 5275 2709 
L 5275 4547 
z
M 1181 2416 
Q 1450 2228 1663 2103 
Q 1138 859 588 -497 
L 88 -197 
Q 681 959 1181 2416 
z
M 531 4884 
Q 1106 4322 1669 3672 
L 1238 3284 
Q 725 3953 163 4553 
L 531 4884 
z
" transform="scale(0.015625)"/>
     </defs>
     <use xlink:href="#MicrosoftYaHei-964d"/>
     <use xlink:href="#MicrosoftYaHei-843d" x="100"/>
     <use xlink:href="#MicrosoftYaHei-7a7a" x="200"/>
     <use xlink:href="#MicrosoftYaHei-57df" x="300"/>
     <use xlink:href="#MicrosoftYaHei-8d70" x="400"/>
     <use xlink:href="#MicrosoftYaHei-5eca" x="500"/>
     <use xlink:href="#MicrosoftYaHei-5360" x="600"/>
     <use xlink:href="#MicrosoftYaHei-7528" x="700"/>
     <use xlink:href="#MicrosoftYaHei-60c5" x="800"/>
     <use xlink:href="#MicrosoftYaHei-51b5" x="900"/>
    </g>
   </g>
  </g>
 </g>
 <defs>
  <clipPath id="p043644d8a1">
   <rect x="48.53" y="26.88" width="804.67" height="157.44"/>
  </clipPath>
  <clipPath id="p53324ab2e3">
   <rect x="48.53" y="229.72" width="804.67" height="157.44"/>
  </clipPath>
 </defs>
</svg>
